<svg width="275" height="278" viewBox="0 0 275 278" fill="none" xmlns="http://www.w3.org/2000/svg">
<path d="M176.696 131.243L178.516 133.531C177.928 132.751 177.32 131.991 176.696 131.243Z" fill="#183444"/>
<path d="M178.66 203.439C185.88 193.787 190.172 181.823 190.236 168.855L178.66 203.439Z" fill="black"/>
<path d="M181.188 136.887L178.52 133.531C179.308 134.575 180.056 135.655 180.776 136.755L181.192 136.887H181.188Z" fill="#BD1621"/>
<path d="M190.24 168.836H190.232C190.232 168.836 190.232 168.852 190.232 168.856L190.24 168.836Z" fill="#BD1621"/>
<path d="M5.56799 140.532C5.56799 138.616 5.60799 136.712 5.68799 134.816C5.73599 133.716 4.96799 132.756 3.89599 132.564L2.35199 132.288C1.17199 132.076 0.383986 130.936 0.591986 129.744L5.71999 100.292C5.92799 99.0956 7.05599 98.2996 8.23599 98.5076L10.16 98.8516C11.208 99.0396 12.244 98.4276 12.588 97.4076C13.472 94.7756 14.44 92.1836 15.48 89.6276C15.892 88.6116 15.492 87.4476 14.556 86.8956L12.784 85.8596C11.744 85.2516 11.392 83.9076 11.988 82.8556L26.756 56.9556C27.356 55.9036 28.684 55.5436 29.72 56.1516L31.84 57.3916C32.764 57.9316 33.94 57.7156 34.608 56.8716C36.288 54.7516 38.032 52.6876 39.832 50.6796C40.56 49.8676 40.576 48.6356 39.88 47.7996L38.26 45.8436C37.488 44.9156 37.608 43.5276 38.528 42.7476L61.156 23.5236C62.076 22.7436 63.444 22.8636 64.212 23.7956L66 25.9516C66.688 26.7836 67.872 26.9836 68.788 26.4196C71.04 25.0236 73.34 23.6956 75.676 22.4356C76.628 21.9236 77.056 20.7756 76.688 19.7516L75.724 17.0716C75.316 15.9316 75.896 14.6716 77.02 14.2556L104.776 4.02762C105.904 3.61162 107.148 4.19962 107.56 5.33962L108.576 8.15961C108.944 9.17961 109.988 9.77962 111.04 9.56362C113.6 9.03562 116.188 8.57961 118.8 8.20361C119.864 8.05161 120.656 7.11962 120.656 6.03162V3.00361C120.656 1.79161 121.628 0.807617 122.828 0.807617H152.368C153.568 0.807617 154.54 1.79161 154.54 3.00361V6.03162C154.54 7.11962 155.328 8.05161 156.396 8.20361C159.008 8.57961 161.596 9.03562 164.156 9.56362C165.204 9.77962 166.252 9.17961 166.62 8.15961L167.636 5.33962C168.048 4.19962 169.292 3.61162 170.42 4.02762L198.176 14.2556C199.304 14.6716 199.884 15.9316 199.472 17.0716L198.508 19.7516C198.14 20.7756 198.568 21.9236 199.52 22.4396C201.86 23.6996 204.156 25.0276 206.408 26.4236C207.32 26.9876 208.508 26.7876 209.196 25.9556L210.984 23.7996C211.756 22.8716 213.124 22.7476 214.044 23.5276L236.672 42.7516C237.592 43.5316 237.712 44.9196 236.94 45.8476L235.32 47.8036C234.624 48.6436 234.644 49.8756 235.368 50.6836C237.172 52.6916 238.912 54.7596 240.592 56.8756C241.26 57.7156 242.44 57.9356 243.36 57.3956L245.48 56.1556C246.52 55.5476 247.844 55.9076 248.444 56.9596L263.212 82.8596C263.812 83.9116 263.456 85.2556 262.416 85.8636L260.644 86.8996C259.704 87.4476 259.308 88.6156 259.72 89.6316C260.76 92.1876 261.724 94.7796 262.612 97.4116C262.956 98.4316 263.988 99.0436 265.04 98.8556L266.964 98.5116C268.144 98.2996 269.272 99.0996 269.48 100.296L274.608 129.748C274.816 130.944 274.028 132.084 272.848 132.292L271.304 132.568C270.236 132.76 269.468 133.72 269.512 134.82C269.592 136.716 269.632 138.62 269.632 140.536C269.632 141.456 269.62 142.376 269.604 143.288C269.58 144.368 270.344 145.304 271.396 145.492L272.848 145.752C274.028 145.964 274.816 147.104 274.608 148.296L269.48 177.748C269.272 178.944 268.144 179.74 266.964 179.532L265.964 179.352C264.896 179.16 263.848 179.796 263.52 180.844C262.656 183.612 261.708 186.336 260.676 189.024C260.288 190.032 260.692 191.172 261.616 191.712L262.416 192.18C263.456 192.788 263.808 194.132 263.212 195.184L248.444 221.084C247.844 222.136 246.516 222.496 245.48 221.888L244.98 221.596C244.044 221.048 242.844 221.28 242.184 222.148C240.408 224.476 238.556 226.748 236.636 228.952C235.928 229.764 235.924 230.98 236.608 231.808L236.932 232.2C237.704 233.128 237.584 234.516 236.664 235.296L214.036 254.52C213.116 255.3 211.748 255.18 210.976 254.248L210.836 254.08C210.14 253.24 208.94 253.044 208.024 253.628C205.54 255.22 202.996 256.728 200.404 258.152C199.464 258.668 199.044 259.812 199.412 260.828L199.464 260.976C199.876 262.116 199.292 263.376 198.168 263.792L170.412 274.02C169.284 274.436 168.04 273.848 167.628 272.708V272.7C167.256 271.676 166.2 271.072 165.148 271.3C162.26 271.92 159.34 272.448 156.388 272.872C155.324 273.024 154.536 273.956 154.536 275.044C154.536 276.256 153.564 277.24 152.364 277.24H122.824C121.624 277.24 120.652 276.256 120.652 275.044C120.652 273.956 119.868 273.024 118.8 272.872C115.848 272.444 112.928 271.92 110.04 271.3C108.988 271.072 107.932 271.676 107.564 272.7V272.708C107.152 273.848 105.904 274.436 104.78 274.02L77.024 263.792C75.896 263.376 75.316 262.116 75.728 260.976L75.78 260.828C76.148 259.808 75.728 258.668 74.788 258.152C72.192 256.728 69.652 255.22 67.168 253.628C66.252 253.044 65.052 253.24 64.356 254.08L64.216 254.248C63.444 255.176 62.076 255.3 61.16 254.52L38.532 235.296C37.612 234.516 37.492 233.128 38.264 232.2L38.588 231.808C39.276 230.98 39.268 229.764 38.56 228.952C36.64 226.748 34.788 224.48 33.012 222.148C32.352 221.28 31.152 221.048 30.216 221.596L29.716 221.888C28.676 222.496 27.352 222.136 26.752 221.084L11.984 195.184C11.384 194.132 11.74 192.788 12.78 192.18L13.58 191.712C14.504 191.172 14.908 190.032 14.52 189.024C13.488 186.34 12.536 183.612 11.676 180.844C11.348 179.796 10.3 179.164 9.23199 179.352L8.23199 179.532C7.05199 179.744 5.92399 178.944 5.71599 177.748L0.587988 148.296C0.379988 147.1 1.16799 145.96 2.34799 145.752L3.79999 145.492C4.85199 145.304 5.61599 144.372 5.59199 143.288C5.57199 142.372 5.56399 141.456 5.56399 140.536L5.56799 140.532Z" fill="url(#paint0_radial_1915_12871)"/>
<path d="M137.6 244.192C194.969 244.192 241.476 197.105 241.476 139.02C241.476 80.9348 194.969 33.8477 137.6 33.8477C80.2305 33.8477 33.7236 80.9348 33.7236 139.02C33.7236 197.105 80.2305 244.192 137.6 244.192Z" fill="#C1272D" stroke="white" stroke-width="5.48" stroke-miterlimit="10"/>
<path d="M137.6 234.864C189.88 234.864 232.26 191.953 232.26 139.02C232.26 86.0866 189.88 43.1758 137.6 43.1758C85.3212 43.1758 42.9404 86.0866 42.9404 139.02C42.9404 191.953 85.3212 234.864 137.6 234.864Z" fill="black"/>
<path d="M138.052 209.943C177.039 209.943 208.644 177.942 208.644 138.467C208.644 98.9921 177.039 66.9912 138.052 66.9912C99.0651 66.9912 67.46 98.9921 67.46 138.467C67.46 177.942 99.0651 209.943 138.052 209.943Z" fill="#183444"/>
<path d="M138.052 209.943C177.039 209.943 208.644 177.942 208.644 138.467C208.644 98.9921 177.039 66.9912 138.052 66.9912C99.0651 66.9912 67.46 98.9921 67.46 138.467C67.46 177.942 99.0651 209.943 138.052 209.943Z" fill="black"/>
<path d="M123.408 141.924C123.408 149.236 129.26 155.163 136.484 155.163C143.708 155.163 149.56 149.236 149.56 141.924C149.56 134.611 143.708 128.688 136.484 128.688C129.26 128.688 123.408 134.615 123.408 141.924Z" fill="black"/>
<path d="M173.776 152.884L165.664 153.688L156.048 182.628L143.204 183.896L152.892 154.948L156.464 144.236L206.14 139.328C206.14 139.224 206.148 139.124 206.148 139.024C206.148 125.2 202.044 112.344 195.004 101.576L149.4 87.0996L151.256 103.044L152.2 111.14L181.3 120.252L182.792 133.072L153.68 123.888L142.904 120.504L137.128 70.9116L178.352 83.9156C166.96 75.4756 152.86 70.4756 137.592 70.4756C119.504 70.4756 103.06 77.4956 90.8119 88.9436L103.78 79.6916L86.7559 124.956L102.776 123.936L110.912 123.416L121.532 94.8316L134.412 94.0116L123.72 122.604L119.776 133.188L69.0799 136.912L85.6839 94.2956C75.3239 106.304 69.0479 121.932 69.0479 139.036C69.0479 157.804 76.5959 174.804 88.8159 187.184C84.7119 182.916 79.2879 174.312 79.2879 174.312L124.84 190.544L123.54 174.544L122.88 166.42L94.1119 156.3L93.0679 143.436L121.844 153.628L132.492 157.388L136.536 207.152L94.3399 192.204C106.14 201.816 121.196 207.588 137.6 207.588C151.156 207.588 163.78 203.636 174.42 196.848L189.752 151.324L173.78 152.904L173.776 152.884Z" fill="black"/>
<path d="M205.832 207.255C243.518 169.57 243.518 108.469 205.832 70.7837C168.147 33.0981 107.046 33.0981 69.3608 70.7837C31.6752 108.469 31.6752 169.57 69.3608 207.255C107.046 244.941 168.147 244.941 205.832 207.255Z" fill="#D2CED3"/>
<path d="M144.444 115.999L160.568 120.087L202.204 131.535L200.068 113.211L158.476 100.191L157.128 88.6192L154.472 65.8312L219.648 86.5232C218.44 84.6752 217.184 82.8592 215.856 81.0992L212.792 77.2512C207.804 71.2832 202.12 65.9192 195.864 61.2832L136.944 42.6992L144.444 115.999Z" fill="#DD1829"/>
<g filter="url(#filter0_d_1915_12871)">
<path d="M235.932 137.367L159.416 144.927L154.604 160.179L143.168 203.055L162.1 201.183L176.276 158.531L188.232 157.347L211.776 155.019L189.18 222.115C190.256 221.427 191.324 220.727 192.372 220.003L200.192 213.999C206.012 209.067 211.28 203.503 215.856 197.387L235.936 137.399C235.936 137.399 235.936 137.375 235.936 137.363L235.932 137.367Z" fill="#DD1829"/>
</g>
<path d="M133.288 163.388L116.088 157.716L74.7315 145.184L76.2275 163.616L117.44 178.116L118.388 189.756L120.252 212.676L54.3115 189.42C59.2115 197.616 64.0115 204.16 68.6395 207.86C71.1435 210.396 73.7795 212.796 76.5475 215.048L137.004 236.464L133.288 163.384V163.388Z" fill="#DD1829"/>
<path d="M115.88 131.116L119.952 114.824L135.82 72.4041L116.708 73.6201L100.948 116.032L88.8798 116.804L65.1118 118.32L90.3718 51.1641L71.1318 64.8921C68.4518 67.3961 65.9158 70.0441 63.5198 72.8201L38.8838 136.052L115.876 131.116H115.88Z" fill="#DD1829"/>
<path d="M144.393 180.683C167.407 176.931 183.021 155.233 179.269 132.22C175.517 109.206 153.819 93.5917 130.806 97.3439C107.792 101.096 92.1774 122.794 95.9296 145.807C99.6817 168.821 121.38 184.436 144.393 180.683Z" fill="#DD1829"/>
<path d="M164.834 166.257C179.877 151.214 179.877 126.825 164.834 111.782C149.791 96.7388 125.402 96.7388 110.359 111.782C95.3158 126.825 95.3158 151.214 110.359 166.257C125.402 181.3 149.791 181.3 164.834 166.257Z" fill="#D2CED3"/>
<path d="M157.682 170.501C174.827 159.469 179.783 136.626 168.75 119.481C157.718 102.336 134.875 97.3802 117.73 108.413C100.585 119.445 95.6291 142.288 106.662 159.433C117.694 176.578 140.537 181.534 157.682 170.501Z" fill="black"/>
<path d="M129.028 128.968H128.164V124.112C128.164 118.516 132.716 113.964 138.312 113.964C143.908 113.964 148.46 118.516 148.46 124.112V128.068H147.596V124.112C147.596 118.992 143.432 114.828 138.312 114.828C133.192 114.828 129.028 118.992 129.028 124.112V128.968Z" fill="white" stroke="white" stroke-width="9.78" stroke-miterlimit="10"/>
<path d="M151.088 162.892H125.288C122.928 162.892 121.008 160.972 121.008 158.612V132.812C121.008 130.452 122.928 128.532 125.288 128.532H151.088C153.448 128.532 155.368 130.452 155.368 132.812V158.612C155.368 160.972 153.448 162.892 151.088 162.892ZM125.288 129.4C123.404 129.4 121.876 130.932 121.876 132.812V158.612C121.876 160.496 123.408 162.024 125.288 162.024H151.088C152.972 162.024 154.5 160.492 154.5 158.612V132.812C154.5 130.932 152.968 129.4 151.088 129.4H125.288Z" fill="white" stroke="white" stroke-width="9.78" stroke-miterlimit="10"/>
<path d="M138.312 146.56C136.08 146.56 134.264 144.744 134.264 142.512C134.264 140.28 136.08 138.464 138.312 138.464C140.544 138.464 142.364 140.28 142.364 142.512C142.364 144.744 140.548 146.56 138.312 146.56ZM138.312 139.328C136.556 139.328 135.128 140.756 135.128 142.512C135.128 144.268 136.556 145.696 138.312 145.696C140.068 145.696 141.496 144.268 141.496 142.512C141.496 140.756 140.068 139.328 138.312 139.328Z" fill="white" stroke="white" stroke-width="9.78" stroke-miterlimit="10"/>
<path d="M138.62 145.939H137.756V153.247H138.62V145.939Z" fill="white" stroke="white" stroke-width="9.78" stroke-miterlimit="10"/>
<defs>
<filter id="filter0_d_1915_12871" x="133.728" y="123.203" width="111.648" height="103.632" filterUnits="userSpaceOnUse" color-interpolation-filters="sRGB">
<feFlood flood-opacity="0" result="BackgroundImageFix"/>
<feColorMatrix in="SourceAlpha" type="matrix" values="0 0 0 0 0 0 0 0 0 0 0 0 0 0 0 0 0 0 127 0" result="hardAlpha"/>
<feOffset dy="-4.72"/>
<feGaussianBlur stdDeviation="4.72"/>
<feColorMatrix type="matrix" values="0 0 0 0 0 0 0 0 0 0 0 0 0 0 0 0 0 0 0.36 0"/>
<feBlend mode="normal" in2="BackgroundImageFix" result="effect1_dropShadow_1915_12871"/>
<feBlend mode="normal" in="SourceGraphic" in2="effect1_dropShadow_1915_12871" result="shape"/>
</filter>
<radialGradient id="paint0_radial_1915_12871" cx="0" cy="0" r="1" gradientUnits="userSpaceOnUse" gradientTransform="translate(137.6 139.02) scale(137.632 137.632)">
<stop offset="0.57" stop-color="#606060"/>
<stop offset="0.83" stop-color="#231F20"/>
</radialGradient>
</defs>
</svg>
