<svg width="252" height="306" viewBox="0 0 252 306" fill="none" xmlns="http://www.w3.org/2000/svg">
<path d="M145.732 0H10.6562V77.832H145.732V0Z" fill="#FFCCC9"/>
<path d="M118.112 41.5283H28.4277V44.1603H118.112V41.5283Z" fill="#FFDFDD"/>
<path d="M124.288 51.332H28.4277V54.2H124.288V51.332Z" fill="#FFDFDD"/>
<path d="M124.288 61.252H28.4277V64.1199H124.288V61.252Z" fill="#FFDFDD"/>
<path d="M59.7717 27.2881H28.4277V34.1121H59.7717V27.2881Z" fill="#FFDFDD"/>
<path d="M145.732 0H10.6562V12.524H145.732V0Z" fill="#FAC6C4"/>
<path d="M134.877 10.592C134.705 10.428 136.445 8.32796 138.765 5.90396C141.085 3.47996 143.105 1.64796 143.277 1.81196C143.449 1.97596 141.709 4.07596 139.389 6.49996C137.069 8.92396 135.049 10.756 134.877 10.592Z" fill="white"/>
<path d="M143.273 10.592C143.101 10.756 141.081 8.92396 138.761 6.49996C136.441 4.07596 134.701 1.97596 134.873 1.81196C135.045 1.64796 137.065 3.47996 139.385 5.90396C141.705 8.32796 143.445 10.428 143.273 10.592Z" fill="white"/>
<path d="M136.316 144.588H0.412109V65.9238H136.316V144.588ZM1.24011 143.76H135.484V66.7558H1.24411V143.76H1.24011Z" fill="#FAC6C4"/>
<path d="M108.284 107.868H18.5996V110.5H108.284V107.868Z" fill="#FFDFDD"/>
<path d="M114.46 117.676H18.5996V120.544H114.46V117.676Z" fill="#FFDFDD"/>
<path d="M114.46 127.592H18.5996V130.46H114.46V127.592Z" fill="#FFDFDD"/>
<path d="M49.9436 93.6318H18.5996V100.456H49.9436V93.6318Z" fill="#FFDFDD"/>
<path d="M135.904 66.3438H0.828125V78.8678H135.904V66.3438Z" fill="#FAC6C4"/>
<path d="M251.416 162.616H91.9238V305.4H251.416V162.616Z" fill="#FFCCC9"/>
<path d="M141.688 117.636H16.752V247.44H141.688V117.636Z" fill="#FFDFDD"/>
<path d="M141.688 117.636H16.752V131.78H141.688V117.636Z" fill="#FAC6C4"/>
<path d="M27.0683 124.563C27.0683 126.079 25.8923 127.303 24.4443 127.303C22.9963 127.303 21.8203 126.075 21.8203 124.563C21.8203 123.051 22.9963 121.819 24.4443 121.819C25.8923 121.819 27.0683 123.047 27.0683 124.563Z" fill="white"/>
<path d="M37.707 124.563C37.707 126.079 36.531 127.303 35.083 127.303C33.635 127.303 32.459 126.075 32.459 124.563C32.459 123.051 33.635 121.819 35.083 121.819C36.531 121.819 37.707 123.047 37.707 124.563Z" fill="white"/>
<path d="M48.3476 124.563C48.3476 126.079 47.1716 127.303 45.7236 127.303C44.2756 127.303 43.0996 126.075 43.0996 124.563C43.0996 123.051 44.2756 121.819 45.7236 121.819C47.1716 121.819 48.3476 123.047 48.3476 124.563Z" fill="white"/>
<path d="M94.3718 25.4323L90.0958 26.9603L88.2678 21.3803C84.8958 11.0883 74.1398 5.58033 64.2998 9.09633C54.4558 12.6163 49.1918 23.8563 52.5638 34.1523L54.3918 39.7323L50.1038 41.2643C46.7678 42.4563 44.9638 46.3003 46.1078 49.7883L57.9958 86.1083C59.1558 89.6483 62.8358 91.5403 66.1718 90.3483L110.44 74.5123C113.828 73.3003 115.636 69.4483 114.476 65.9083L102.588 29.5883C101.448 26.1003 97.7638 24.2203 94.3758 25.4323H94.3718ZM60.6318 31.2683C58.7838 25.6283 61.6678 19.4643 67.0638 17.5363C72.4558 15.6083 78.3478 18.6283 80.1958 24.2683L82.0238 29.8483L62.4598 36.8483L60.6318 31.2683ZM85.5198 63.4923L88.5558 72.7683C88.6838 73.1603 88.4598 73.5603 88.0798 73.6963L83.8318 75.2163C83.5078 75.3323 83.0918 75.1603 82.9638 74.7683L79.9278 65.4923C76.6398 65.3523 73.5838 63.1723 72.4398 59.6843C70.9718 55.1963 73.2678 50.2923 77.5758 48.7523C81.8798 47.2123 86.5678 49.6203 88.0358 54.1043C89.1758 57.5923 88.0438 61.2723 85.5198 63.4923Z" fill="#DD1829"/>
<path d="M89.9113 26.8604C89.9513 26.9724 81.9913 29.9524 72.1313 33.5164C62.2713 37.0804 54.2433 39.8804 54.2033 39.7684C54.1633 39.6564 62.1233 36.6764 71.9833 33.1124C81.8433 29.5484 89.8673 26.7484 89.9113 26.8644V26.8604Z" fill="#1A2E35"/>
<path d="M99.3123 28.3887C99.3123 28.3887 99.3523 28.4607 99.4083 28.6047C99.4723 28.7727 99.5523 28.9887 99.6483 29.2527C99.8603 29.8567 100.156 30.6967 100.536 31.7687C101.3 33.9887 102.384 37.1487 103.72 41.0407C105.052 44.9687 106.632 49.6327 108.388 54.8087C109.256 57.4087 110.2 60.1087 111.108 62.9567C111.528 64.3887 111.876 65.9207 111.732 67.5087C111.66 68.2967 111.444 69.0887 111.06 69.8047C110.668 70.5167 110.124 71.1407 109.492 71.6527C108.216 72.6727 106.724 73.2687 105.284 73.8007C103.836 74.3207 102.408 74.8327 101.008 75.3367C98.2043 76.3407 95.5003 77.3087 92.9243 78.2287C87.7763 80.0607 83.1363 81.7127 79.2283 83.1047C75.3483 84.4687 72.1963 85.5767 69.9803 86.3567C68.9083 86.7247 68.0643 87.0127 67.4603 87.2207C67.1883 87.3087 66.9723 87.3807 66.8003 87.4367C66.6523 87.4847 66.5723 87.5047 66.5723 87.4967C66.5723 87.4887 66.6443 87.4567 66.7883 87.3967C66.9563 87.3287 67.1683 87.2447 67.4323 87.1407C68.0323 86.9167 68.8683 86.6007 69.9243 86.2007C72.1283 85.3927 75.2643 84.2367 79.1243 82.8207C83.0243 81.4047 87.6523 79.7247 92.7883 77.8567C95.3603 76.9247 98.0643 75.9487 100.864 74.9407C102.264 74.4367 103.688 73.9207 105.136 73.4007C106.568 72.8687 108.02 72.2847 109.22 71.3207C109.816 70.8407 110.32 70.2607 110.68 69.6047C111.032 68.9447 111.232 68.2127 111.304 67.4727C111.444 65.9807 111.116 64.4927 110.704 63.0807C109.812 60.2567 108.864 57.5327 108.012 54.9367C106.292 49.7487 104.74 45.0767 103.432 41.1407C102.152 37.2327 101.112 34.0567 100.38 31.8247C100.036 30.7447 99.7643 29.8967 99.5723 29.2847C99.4883 29.0127 99.4243 28.7927 99.3723 28.6207C99.3283 28.4687 99.3123 28.3927 99.3163 28.3887H99.3123Z" fill="#1A2E35"/>
<path d="M75.9629 16.9484C75.9429 16.9844 75.5228 16.7244 74.7068 16.3964C73.8908 16.0844 72.6549 15.7204 71.0869 15.6724C69.5309 15.6164 67.6348 15.8564 65.7428 16.6804C63.8588 17.4964 62.0029 18.9444 60.6749 20.9164C59.3189 22.8804 58.7269 25.1524 58.7269 27.2124C58.7109 29.2804 59.1468 31.1244 59.5708 32.6404C60.0068 34.1564 60.4549 35.3564 60.7509 36.1924C61.0469 37.0284 61.2109 37.4884 61.1789 37.5004C61.1509 37.5124 60.9389 37.0684 60.5909 36.2524C60.2469 35.4364 59.7549 34.2484 59.2789 32.7284C58.8149 31.2124 58.3349 29.3444 58.3269 27.2124C58.3029 25.0924 58.9109 22.7084 60.3149 20.6764C61.6949 18.6324 63.6268 17.1444 65.5828 16.3164C67.5508 15.4844 69.5029 15.2684 71.0989 15.3684C72.7069 15.4604 73.9588 15.8804 74.7708 16.2444C75.1708 16.4404 75.4788 16.6004 75.6708 16.7364C75.8668 16.8644 75.9668 16.9364 75.9588 16.9484H75.9629Z" fill="#1A2E35"/>
<path d="M76.3394 49.4042C76.3394 49.4042 76.4794 49.3242 76.7594 49.1962C77.0394 49.0642 77.4674 48.9002 78.0394 48.7362C78.6074 48.5562 79.3354 48.4282 80.1954 48.3802C81.0514 48.3362 82.0634 48.4282 83.1034 48.8122C85.2234 49.5562 87.1754 51.7242 88.1354 54.5922C88.5954 56.0402 88.6394 57.7242 88.1754 59.3522C87.6794 60.9722 86.7754 62.5282 85.4634 63.8362L85.5194 63.6162C86.6194 66.6402 87.8194 69.9282 89.0674 73.3522L89.1434 73.5602L88.9354 73.6322C88.3354 73.8322 87.6874 74.0482 87.0394 74.2682C85.6434 74.7362 84.2634 75.1962 82.9114 75.6482L82.7074 75.7162L82.6394 75.5122C81.5034 72.0722 80.2594 68.8322 79.3554 65.7322L79.5354 65.8722C77.8394 65.7602 76.3114 65.0442 75.0954 64.1162C73.8754 63.1762 72.9394 62.0122 72.3114 60.7882C71.6914 59.5602 71.3794 58.2562 71.4314 57.0522C71.4634 55.8522 71.7394 54.7642 72.1274 53.8482C72.8994 52.0002 74.0554 50.8362 74.9074 50.2002C75.7754 49.5642 76.3434 49.4002 76.3434 49.4002C76.3634 49.4362 75.8154 49.6442 74.9874 50.3002C74.1714 50.9562 73.0754 52.1202 72.3514 53.9362C71.6274 55.7082 71.3154 58.2562 72.6074 60.6322C73.2274 61.8082 74.1394 62.9242 75.3194 63.8202C76.4954 64.7082 77.9594 65.3722 79.5554 65.4722L79.6954 65.4802L79.7354 65.6122C80.6514 68.6882 81.9034 71.9202 83.0474 75.3722L82.7754 75.2362C84.1274 74.7842 85.5034 74.3202 86.8994 73.8522C87.5474 73.6362 88.1954 73.4202 88.7954 73.2162L88.6594 73.4922C87.4194 70.0682 86.2274 66.7722 85.1314 63.7482L85.0874 63.6242L85.1874 63.5282C86.4274 62.3002 87.3314 60.7802 87.8074 59.2362C88.2594 57.6802 88.2354 56.0802 87.8074 54.6842C86.8994 51.8962 85.0394 49.7802 83.0154 49.0362C82.0194 48.6482 81.0394 48.5402 80.2034 48.5642C79.3634 48.5922 78.6434 48.7002 78.0754 48.8562C76.9354 49.1482 76.3554 49.4322 76.3394 49.3962V49.4042Z" fill="#1A2E35"/>
<path d="M190.242 284.696L107.402 284.312C97.4376 284.268 89.3976 276.156 89.4416 266.192L90.3176 58.5122C90.3616 48.5442 98.4776 40.4962 108.446 40.5442L191.286 40.9282C201.25 40.9762 209.29 49.0882 209.246 59.0482L208.37 266.728C208.326 276.696 200.21 284.744 190.242 284.696Z" fill="black"/>
<path d="M191.742 44.9645L175.458 44.8885C173.274 44.8765 130.09 44.6725 127.906 44.6645L122.178 44.6365L107.926 44.5685C100.85 44.5365 95.0857 50.3765 95.0537 57.6125L94.1857 267.732C94.1537 274.964 99.8657 280.856 106.938 280.888L190.75 281.285C197.826 281.316 203.59 275.476 203.622 268.24L204.49 58.1205C204.518 50.8885 198.81 45.0005 191.738 44.9645H191.742Z" fill="white"/>
<path d="M180.042 249.036L118.566 248.752C117.93 248.752 117.418 248.056 117.422 247.204L117.49 231.12C117.49 230.268 118.014 229.58 118.65 229.584L180.126 229.868C180.762 229.868 181.278 230.564 181.274 231.416L181.206 247.5C181.206 248.352 180.682 249.04 180.046 249.036H180.042Z" fill="#DD1829"/>
<path d="M138.835 247.539C138.223 247.536 137.636 247.436 137.072 247.237C136.517 247.031 136.087 246.77 135.783 246.455L136.127 245.787C136.415 246.07 136.802 246.311 137.287 246.509C137.78 246.699 138.297 246.796 138.838 246.798C139.355 246.801 139.775 246.74 140.097 246.616C140.427 246.484 140.667 246.309 140.817 246.09C140.974 245.871 141.054 245.629 141.055 245.362C141.056 245.041 140.964 244.782 140.776 244.585C140.597 244.388 140.359 244.234 140.061 244.123C139.764 244.004 139.435 243.901 139.075 243.813C138.715 243.725 138.355 243.633 137.995 243.538C137.634 243.434 137.302 243.299 136.997 243.133C136.7 242.967 136.458 242.751 136.271 242.483C136.092 242.208 136.003 241.851 136.005 241.412C136.007 241.005 136.115 240.633 136.328 240.297C136.549 239.953 136.883 239.68 137.331 239.478C137.779 239.269 138.351 239.165 139.049 239.168C139.511 239.171 139.97 239.239 140.424 239.375C140.878 239.502 141.269 239.68 141.597 239.909L141.3 240.601C140.948 240.365 140.573 240.19 140.174 240.079C139.782 239.967 139.402 239.911 139.034 239.909C138.54 239.907 138.132 239.972 137.81 240.103C137.488 240.235 137.248 240.414 137.091 240.641C136.941 240.86 136.865 241.11 136.864 241.393C136.862 241.714 136.951 241.973 137.131 242.17C137.318 242.367 137.56 242.52 137.858 242.632C138.163 242.743 138.495 242.842 138.856 242.93C139.216 243.018 139.572 243.114 139.924 243.217C140.284 243.321 140.613 243.455 140.91 243.621C141.215 243.779 141.457 243.992 141.636 244.26C141.823 244.527 141.916 244.876 141.914 245.307C141.912 245.707 141.8 246.079 141.579 246.423C141.358 246.759 141.02 247.032 140.564 247.241C140.117 247.443 139.54 247.542 138.835 247.539ZM143.799 247.491L143.837 239.261L144.707 239.265L144.669 247.495L143.799 247.491ZM147.347 247.507L147.385 239.277L148.102 239.28L153.748 246.454L153.372 246.453L153.404 239.304L154.263 239.308L154.225 247.538L153.508 247.535L147.874 240.361L148.25 240.362L148.217 247.511L147.347 247.507ZM140.112 261.545C139.484 261.542 138.905 261.438 138.373 261.231C137.849 261.017 137.391 260.721 137.001 260.343C136.619 259.965 136.319 259.521 136.102 259.011C135.893 258.5 135.789 257.943 135.792 257.34C135.795 256.736 135.903 256.18 136.117 255.671C136.339 255.163 136.647 254.721 137.04 254.347C137.434 253.973 137.894 253.685 138.42 253.483C138.954 253.274 139.534 253.171 140.161 253.174C140.788 253.177 141.36 253.277 141.876 253.475C142.401 253.674 142.846 253.974 143.213 254.375L142.669 254.925C142.326 254.579 141.947 254.33 141.532 254.179C141.118 254.028 140.671 253.952 140.193 253.95C139.684 253.947 139.213 254.032 138.781 254.202C138.357 254.365 137.984 254.602 137.661 254.914C137.346 255.218 137.097 255.578 136.915 255.993C136.741 256.399 136.653 256.85 136.65 257.343C136.648 257.829 136.732 258.281 136.903 258.697C137.081 259.113 137.326 259.479 137.639 259.794C137.959 260.101 138.33 260.341 138.752 260.516C139.183 260.682 139.649 260.767 140.15 260.769C140.621 260.771 141.064 260.703 141.48 260.563C141.904 260.424 142.293 260.187 142.647 259.852L143.138 260.512C142.744 260.855 142.285 261.116 141.759 261.294C141.233 261.464 140.684 261.547 140.112 261.545ZM142.304 260.403L142.317 257.369L143.152 257.373L143.138 260.512L142.304 260.403ZM139.754 275.543C138.704 275.539 137.878 275.233 137.277 274.627C136.677 274.021 136.379 273.126 136.384 271.942L136.406 267.227L137.276 267.231L137.254 271.911C137.25 272.883 137.466 273.601 137.903 274.065C138.34 274.53 138.958 274.764 139.758 274.767C140.565 274.771 141.189 274.543 141.63 274.082C142.071 273.622 142.294 272.906 142.298 271.934L142.32 267.254L143.166 267.258L143.145 271.973C143.139 273.156 142.833 274.048 142.227 274.649C141.629 275.25 140.804 275.548 139.754 275.543ZM145.751 275.5L145.788 267.27L148.868 267.284C149.566 267.287 150.165 267.403 150.666 267.633C151.166 267.855 151.549 268.178 151.814 268.602C152.086 269.019 152.221 269.525 152.218 270.121C152.216 270.701 152.076 271.202 151.8 271.624C151.531 272.038 151.146 272.358 150.643 272.583C150.141 272.808 149.54 272.919 148.843 272.916L146.244 272.904L146.634 272.494L146.621 275.504L145.751 275.5ZM146.634 272.565L146.248 272.14L148.823 272.151C149.646 272.155 150.27 271.982 150.695 271.631C151.127 271.272 151.345 270.768 151.348 270.117C151.351 269.459 151.138 268.948 150.708 268.586C150.287 268.223 149.664 268.04 148.841 268.036L146.267 268.025L146.656 267.615L146.634 272.565Z" fill="#E9E9E4"/>
<path d="M161.058 48.5801H139.658C137.628 48.5801 135.982 50.2259 135.982 52.2561V52.2601C135.982 54.2903 137.628 55.9361 139.658 55.9361H161.058C163.089 55.9361 164.734 54.2903 164.734 52.2601V52.2561C164.734 50.2259 163.089 48.5801 161.058 48.5801Z" fill="black"/>
<path d="M130.826 107.649L109.498 107.552L109.48 111.464L130.808 111.561L130.826 107.649Z" fill="#DD1829"/>
<path opacity="0.1" d="M130.826 107.649L109.498 107.552L109.48 111.464L130.808 111.561L130.826 107.649Z" fill="#DD1829"/>
<path d="M193.362 131.68C193.362 131.68 193.542 131.688 193.85 131.564C194.142 131.452 194.602 131.096 194.654 130.448C194.654 129.124 194.646 127.204 194.642 124.736C194.642 123.492 194.642 122.112 194.642 120.604C194.642 120.228 194.642 119.84 194.642 119.448C194.654 119.044 194.65 118.672 194.41 118.36C194.194 118.052 193.818 117.856 193.43 117.856C193.006 117.856 192.57 117.856 192.13 117.856C188.602 117.848 184.586 117.84 180.15 117.832C162.382 117.764 137.862 117.676 110.782 117.576C110.426 117.576 110.074 117.748 109.87 118.04C109.638 118.332 109.65 118.68 109.654 119.124C109.654 119.964 109.646 120.804 109.642 121.64C109.634 123.312 109.626 124.976 109.622 126.624C109.622 127.448 109.614 128.272 109.61 129.088C109.622 129.48 109.57 129.948 109.646 130.256C109.73 130.588 109.982 130.872 110.294 131.004C110.458 131.072 110.61 131.092 110.806 131.092H111.414L112.626 131.1C113.43 131.1 114.234 131.108 115.03 131.112C121.418 131.148 127.578 131.18 133.45 131.212C145.186 131.284 155.754 131.348 164.638 131.4C173.502 131.468 180.682 131.528 185.662 131.568C188.13 131.596 190.054 131.62 191.378 131.636C192.022 131.648 192.514 131.656 192.866 131.664C193.202 131.672 193.374 131.688 193.374 131.688C193.374 131.688 193.202 131.7 192.866 131.708C192.514 131.708 192.022 131.716 191.378 131.724C190.054 131.724 188.13 131.732 185.662 131.74C180.682 131.732 173.502 131.724 164.638 131.712C155.758 131.684 145.186 131.652 133.45 131.616C127.582 131.592 121.418 131.568 115.034 131.544C114.234 131.544 113.434 131.536 112.63 131.532H111.418L110.81 131.524C110.602 131.528 110.346 131.496 110.134 131.404C109.698 131.22 109.354 130.832 109.238 130.372C109.174 130.136 109.186 129.9 109.186 129.708V129.096C109.19 128.276 109.194 127.456 109.198 126.632C109.206 124.984 109.21 123.32 109.218 121.648C109.218 120.812 109.226 119.972 109.23 119.132C109.238 118.916 109.218 118.728 109.25 118.468C109.286 118.224 109.382 117.992 109.526 117.796C109.81 117.396 110.298 117.152 110.79 117.156C137.87 117.304 162.39 117.44 180.158 117.54C184.594 117.572 188.61 117.6 192.138 117.628C192.578 117.628 193.01 117.636 193.438 117.64C193.902 117.644 194.346 117.884 194.598 118.248C194.882 118.604 194.878 119.096 194.862 119.468C194.862 119.86 194.858 120.248 194.854 120.624C194.842 122.132 194.83 123.512 194.818 124.756C194.786 127.228 194.762 129.152 194.746 130.476C194.674 131.168 194.178 131.524 193.87 131.628C193.546 131.744 193.366 131.7 193.366 131.7L193.362 131.68Z" fill="#DD1829"/>
<path d="M154.238 122.783L115.223 122.605L115.206 126.265L154.222 126.442L154.238 122.783Z" fill="#DD1829"/>
<path opacity="0.2" d="M154.238 122.783L115.223 122.605L115.206 126.265L154.222 126.442L154.238 122.783Z" fill="#DD1829"/>
<path d="M130.675 143.363L109.348 143.267L109.33 147.179L130.658 147.275L130.675 143.363Z" fill="#DD1829"/>
<path opacity="0.1" d="M130.675 143.363L109.348 143.267L109.33 147.179L130.658 147.275L130.675 143.363Z" fill="#DD1829"/>
<path d="M192.814 167.396C192.814 167.396 192.99 167.396 193.306 167.304C193.606 167.204 194.094 166.956 194.358 166.364C194.498 166.072 194.514 165.716 194.502 165.312C194.502 164.908 194.502 164.468 194.498 163.996C194.498 163.04 194.498 161.944 194.49 160.708C194.49 159.468 194.49 158.096 194.49 156.592V155.44C194.506 155.044 194.462 154.676 194.246 154.344C194.046 154.02 193.722 153.76 193.346 153.644C192.974 153.528 192.53 153.592 192.094 153.572C188.578 153.564 184.578 153.556 180.154 153.548C162.45 153.484 138.014 153.392 111.026 153.292C110.274 153.272 109.582 153.884 109.51 154.628C109.486 155.416 109.498 156.288 109.49 157.112C109.482 158.78 109.474 160.436 109.47 162.076C109.47 162.9 109.462 163.716 109.458 164.532C109.47 164.94 109.414 165.364 109.51 165.688C109.602 166.032 109.822 166.336 110.114 166.54C110.418 166.744 110.746 166.82 111.146 166.804L112.354 166.812C113.158 166.816 113.954 166.82 114.75 166.824C121.114 166.856 127.254 166.892 133.106 166.92C144.802 166.992 155.334 167.056 164.186 167.108C173.022 167.176 180.174 167.236 185.138 167.272C187.598 167.3 189.514 167.324 190.834 167.34C191.474 167.352 191.966 167.36 192.314 167.368C192.646 167.376 192.818 167.392 192.818 167.392C192.818 167.392 192.646 167.404 192.314 167.412C191.966 167.412 191.474 167.42 190.834 167.428C189.518 167.428 187.598 167.436 185.138 167.444C180.174 167.436 173.022 167.428 164.186 167.416C155.334 167.388 144.802 167.356 133.106 167.32C127.258 167.296 121.118 167.272 114.75 167.248C113.954 167.248 113.154 167.24 112.354 167.236H111.146C110.742 167.252 110.242 167.156 109.874 166.892C109.498 166.636 109.218 166.244 109.098 165.8C108.974 165.336 109.05 164.932 109.03 164.528C109.03 163.712 109.038 162.892 109.038 162.072C109.046 160.428 109.05 158.772 109.058 157.104C109.066 156.26 109.05 155.46 109.082 154.572C109.174 153.616 110.066 152.832 111.026 152.856C138.014 153.004 162.45 153.14 180.154 153.24C184.574 153.272 188.574 153.3 192.094 153.328C192.53 153.352 192.966 153.28 193.414 153.42C193.846 153.556 194.214 153.852 194.438 154.224C194.678 154.588 194.726 155.052 194.702 155.436C194.702 155.828 194.698 156.212 194.694 156.588C194.682 158.092 194.67 159.468 194.658 160.704C194.646 161.94 194.634 163.036 194.622 163.992C194.618 164.468 194.61 164.908 194.606 165.308C194.614 165.704 194.59 166.096 194.434 166.396C194.142 167.012 193.63 167.256 193.318 167.344C192.99 167.424 192.814 167.396 192.814 167.396Z" fill="#DD1829"/>
<path d="M130.517 180.622L109.189 180.525L109.172 184.437L130.499 184.534L130.517 180.622Z" fill="#DD1829"/>
<path opacity="0.1" d="M130.517 180.622L109.189 180.525L109.172 184.437L130.499 184.534L130.517 180.622Z" fill="#DD1829"/>
<path d="M192.658 204.644C192.658 204.644 192.834 204.644 193.15 204.552C193.454 204.452 193.938 204.204 194.202 203.612C194.342 203.32 194.358 202.964 194.346 202.56C194.346 202.156 194.346 201.716 194.342 201.244C194.342 200.288 194.342 199.192 194.338 197.956C194.338 196.716 194.338 195.344 194.338 193.84C194.338 193.464 194.338 193.08 194.338 192.688C194.354 192.292 194.31 191.924 194.094 191.592C193.894 191.268 193.57 191.008 193.194 190.892C192.822 190.776 192.378 190.84 191.942 190.82C188.426 190.812 184.426 190.804 180.002 190.796C162.294 190.732 137.862 190.64 110.874 190.54C110.122 190.52 109.43 191.132 109.358 191.876C109.334 192.664 109.346 193.536 109.338 194.36C109.33 196.028 109.322 197.684 109.318 199.324C109.318 200.148 109.31 200.964 109.306 201.78C109.318 202.188 109.262 202.612 109.358 202.936C109.45 203.28 109.67 203.584 109.962 203.788C110.266 203.992 110.594 204.068 110.994 204.052H112.202C113.006 204.06 113.802 204.064 114.598 204.068C120.962 204.104 127.102 204.136 132.95 204.164C144.646 204.236 155.178 204.3 164.03 204.356C172.866 204.424 180.018 204.484 184.982 204.52C187.442 204.548 189.362 204.572 190.678 204.588C191.318 204.6 191.81 204.608 192.158 204.616C192.49 204.624 192.662 204.64 192.662 204.64C192.662 204.64 192.49 204.652 192.158 204.66C191.81 204.66 191.318 204.668 190.678 204.676C189.358 204.676 187.442 204.684 184.982 204.692C180.018 204.684 172.866 204.676 164.03 204.664C155.178 204.636 144.646 204.604 132.95 204.568C127.102 204.544 120.962 204.52 114.594 204.496C113.798 204.496 112.998 204.488 112.198 204.484H110.99C110.586 204.5 110.086 204.404 109.718 204.14C109.342 203.884 109.062 203.492 108.942 203.048C108.818 202.584 108.894 202.18 108.874 201.776C108.874 200.96 108.882 200.14 108.882 199.32C108.89 197.676 108.894 196.02 108.902 194.352C108.91 193.508 108.894 192.708 108.926 191.82C109.018 190.864 109.91 190.08 110.87 190.104C137.858 190.252 162.29 190.388 179.998 190.488C184.418 190.52 188.418 190.548 191.938 190.576C192.374 190.6 192.81 190.528 193.258 190.668C193.69 190.804 194.058 191.1 194.282 191.472C194.522 191.836 194.57 192.3 194.546 192.684C194.546 193.076 194.538 193.46 194.538 193.836C194.526 195.34 194.514 196.716 194.502 197.952C194.49 199.188 194.478 200.284 194.466 201.24C194.462 201.716 194.454 202.156 194.45 202.556C194.458 202.952 194.434 203.344 194.278 203.644C193.986 204.26 193.474 204.504 193.162 204.592C192.834 204.672 192.658 204.644 192.658 204.644Z" fill="#DD1829"/>
<path d="M154.088 158.497L115.072 158.32L115.056 161.98L154.071 162.157L154.088 158.497Z" fill="#DD1829"/>
<path opacity="0.2" d="M154.088 158.497L115.072 158.32L115.056 161.98L154.071 162.157L154.088 158.497Z" fill="#DD1829"/>
<path d="M118.598 197.876C118.594 198.88 117.826 199.692 116.886 199.688C115.946 199.684 115.182 198.864 115.19 197.86C115.194 196.856 115.962 196.044 116.902 196.048C117.842 196.052 118.606 196.872 118.602 197.876H118.598Z" fill="#DD1829"/>
<path d="M123.885 197.9C123.881 198.904 123.113 199.716 122.173 199.712C121.233 199.708 120.469 198.888 120.473 197.884C120.477 196.88 121.245 196.068 122.185 196.072C123.125 196.076 123.889 196.896 123.881 197.9H123.885Z" fill="#DD1829"/>
<path d="M129.17 197.924C129.166 198.928 128.398 199.74 127.458 199.736C126.514 199.732 125.754 198.912 125.758 197.908C125.762 196.904 126.53 196.092 127.47 196.096C128.414 196.1 129.174 196.92 129.17 197.924Z" fill="#DD1829"/>
<path d="M134.453 197.948C134.449 198.952 133.681 199.764 132.741 199.76C131.801 199.756 131.037 198.936 131.041 197.932C131.045 196.928 131.813 196.116 132.753 196.12C133.693 196.124 134.457 196.944 134.449 197.948H134.453Z" fill="#DD1829"/>
<path d="M139.742 197.972C139.738 198.976 138.97 199.788 138.03 199.784C137.09 199.78 136.326 198.96 136.33 197.956C136.334 196.952 137.102 196.14 138.042 196.144C138.982 196.148 139.742 196.968 139.738 197.972H139.742Z" fill="#DD1829"/>
<path d="M145.025 197.996C145.021 199 144.253 199.812 143.313 199.808C142.373 199.804 141.613 198.984 141.617 197.98C141.621 196.976 142.389 196.164 143.329 196.168C144.273 196.172 145.033 196.992 145.029 197.996H145.025Z" fill="#DD1829"/>
<path d="M150.314 198.019C150.31 199.023 149.542 199.835 148.602 199.831C147.658 199.827 146.902 199.007 146.906 198.003C146.91 196.999 147.678 196.187 148.618 196.191C149.562 196.191 150.322 197.015 150.318 198.019H150.314Z" fill="#DD1829"/>
<path d="M155.598 198.044C155.598 199.048 154.826 199.86 153.886 199.856C152.946 199.852 152.182 199.032 152.19 198.028C152.194 197.024 152.962 196.212 153.902 196.216C154.842 196.216 155.606 197.04 155.598 198.044Z" fill="#DD1829"/>
<path d="M160.881 198.072C160.877 199.076 160.109 199.888 159.169 199.884C158.225 199.88 157.465 199.06 157.469 198.056C157.473 197.052 158.241 196.24 159.181 196.244C160.125 196.244 160.885 197.068 160.877 198.072H160.881Z" fill="#DD1829"/>
<g opacity="0.2">
<path d="M118.598 197.876C118.594 198.88 117.826 199.692 116.886 199.688C115.946 199.684 115.182 198.864 115.19 197.86C115.194 196.856 115.962 196.044 116.902 196.048C117.842 196.052 118.606 196.872 118.602 197.876H118.598Z" fill="#DD1829"/>
<path d="M123.885 197.9C123.881 198.904 123.113 199.716 122.173 199.712C121.233 199.708 120.469 198.888 120.473 197.884C120.477 196.88 121.245 196.068 122.185 196.072C123.125 196.076 123.889 196.896 123.881 197.9H123.885Z" fill="#DD1829"/>
<path d="M129.17 197.924C129.166 198.928 128.398 199.74 127.458 199.736C126.514 199.732 125.754 198.912 125.758 197.908C125.762 196.904 126.53 196.092 127.47 196.096C128.414 196.1 129.174 196.92 129.17 197.924Z" fill="#DD1829"/>
<path d="M134.453 197.948C134.449 198.952 133.681 199.764 132.741 199.76C131.801 199.756 131.037 198.936 131.041 197.932C131.045 196.928 131.813 196.116 132.753 196.12C133.693 196.124 134.457 196.944 134.449 197.948H134.453Z" fill="#DD1829"/>
<path d="M139.742 197.972C139.738 198.976 138.97 199.788 138.03 199.784C137.09 199.78 136.326 198.96 136.33 197.956C136.334 196.952 137.102 196.14 138.042 196.144C138.982 196.148 139.742 196.968 139.738 197.972H139.742Z" fill="#DD1829"/>
<path d="M145.025 197.996C145.021 199 144.253 199.812 143.313 199.808C142.373 199.804 141.613 198.984 141.617 197.98C141.621 196.976 142.389 196.164 143.329 196.168C144.273 196.172 145.033 196.992 145.029 197.996H145.025Z" fill="#DD1829"/>
<path d="M150.314 198.019C150.31 199.023 149.542 199.835 148.602 199.831C147.658 199.827 146.902 199.007 146.906 198.003C146.91 196.999 147.678 196.187 148.618 196.191C149.562 196.191 150.322 197.015 150.318 198.019H150.314Z" fill="#DD1829"/>
<path d="M155.598 198.044C155.598 199.048 154.826 199.86 153.886 199.856C152.946 199.852 152.182 199.032 152.19 198.028C152.194 197.024 152.962 196.212 153.902 196.216C154.842 196.216 155.606 197.04 155.598 198.044Z" fill="#DD1829"/>
<path d="M160.881 198.072C160.877 199.076 160.109 199.888 159.169 199.884C158.225 199.88 157.465 199.06 157.469 198.056C157.473 197.052 158.241 196.24 159.181 196.244C160.125 196.244 160.885 197.068 160.877 198.072H160.881Z" fill="#DD1829"/>
</g>
<path d="M153.379 78.336C154.495 77.868 155.287 76.716 155.295 75.36C155.303 73.584 153.959 72.136 152.291 72.128C150.627 72.12 149.271 73.556 149.263 75.332C149.259 76.7 150.055 77.864 151.183 78.336C146.543 79.036 146.751 84.08 146.751 84.08L157.727 84.132C157.727 84.132 157.979 79.032 153.375 78.336H153.379Z" fill="#DD1829"/>
<path opacity="0.1" d="M153.379 78.336C154.495 77.868 155.287 76.716 155.295 75.36C155.303 73.584 153.959 72.136 152.291 72.128C150.627 72.12 149.271 73.556 149.263 75.332C149.259 76.7 150.055 77.864 151.183 78.336C146.543 79.036 146.751 84.08 146.751 84.08L157.727 84.132C157.727 84.132 157.979 79.032 153.375 78.336H153.379Z" fill="#DD1829"/>
<path d="M171.226 87.4159L132.086 87.2383L132.065 91.9182L171.204 92.0958L171.226 87.4159Z" fill="#DD1829"/>
<path opacity="0.2" d="M171.226 87.4159L132.086 87.2383L132.065 91.9182L171.204 92.0958L171.226 87.4159Z" fill="#DD1829"/>
<path d="M52.1767 140.669C52.1767 140.669 52.0447 140.693 51.7927 140.713C51.5167 140.733 51.1447 140.761 50.6647 140.797C50.1647 140.805 49.5607 140.913 48.8447 141.041C48.4887 141.113 48.0967 141.141 47.6927 141.261C47.2887 141.373 46.8607 141.493 46.4087 141.617C44.6207 142.181 42.4647 143.077 40.2927 144.649C38.1287 146.209 35.9607 148.437 34.2767 151.349C33.3887 152.777 32.7447 154.429 32.1687 156.165C31.6967 157.933 31.2807 159.809 31.2487 161.785C31.1607 162.773 31.2607 163.773 31.3007 164.793C31.3287 165.301 31.4367 165.805 31.5007 166.321C31.5687 166.833 31.6447 167.349 31.7927 167.857C32.2127 169.917 33.0527 171.941 34.1167 173.877C36.2407 177.765 39.8087 181.113 44.2167 183.057C46.4207 184.029 48.8607 184.553 51.3407 184.657C53.8247 184.813 56.3647 184.417 58.7767 183.585L59.5047 183.317L59.6007 183.281L59.6887 183.325C63.2567 185.137 66.7567 186.913 70.1487 188.637L69.8367 188.901C68.7207 185.433 67.6367 182.073 66.5967 178.849L66.5567 178.725L66.6487 178.633C69.2847 175.993 71.1207 172.785 72.1407 169.501C73.1607 166.209 73.3367 162.853 72.9367 159.781C72.5367 156.701 71.5327 153.901 70.1887 151.541C68.8447 149.177 67.1767 147.257 65.4647 145.757C63.7327 144.269 61.9367 143.261 60.3247 142.489C58.6767 141.801 57.2047 141.357 55.9847 141.121C55.3727 141.017 54.8327 140.925 54.3567 140.845C53.8887 140.813 53.4887 140.785 53.1567 140.761C52.8487 140.737 52.6047 140.717 52.4207 140.705C52.2567 140.689 52.1727 140.681 52.1727 140.673C52.1727 140.665 52.2567 140.665 52.4247 140.669C52.6087 140.673 52.8527 140.681 53.1647 140.689C53.4967 140.701 53.9007 140.717 54.3727 140.737C54.8487 140.809 55.3967 140.889 56.0167 140.981C57.2527 141.197 58.7407 141.621 60.4127 142.297C62.0487 143.057 63.8727 144.061 65.6407 145.553C67.3887 147.057 69.0927 148.989 70.4687 151.381C71.8447 153.765 72.8807 156.601 73.3007 159.729C73.7207 162.849 73.5527 166.261 72.5247 169.613C71.4967 172.957 69.6367 176.233 66.9527 178.929L67.0047 178.713C68.0487 181.937 69.1367 185.297 70.2567 188.761L70.4207 189.269L69.9447 189.029C66.5527 187.309 63.0527 185.533 59.4807 183.725L59.6647 183.733L58.9207 184.005C56.4567 184.853 53.8567 185.257 51.3207 185.097C48.7887 184.993 46.2927 184.453 44.0407 183.453C39.5367 181.465 35.9047 178.037 33.7527 174.073C32.6727 172.097 31.8287 170.037 31.4047 167.937C31.2607 167.421 31.1847 166.897 31.1127 166.373C31.0487 165.849 30.9407 165.337 30.9127 164.821C30.8727 163.785 30.7767 162.765 30.8687 161.765C30.9087 159.757 31.3407 157.849 31.8287 156.057C32.4247 154.297 33.0887 152.625 33.9967 151.181C35.7247 148.241 37.9367 145.997 40.1407 144.441C42.3487 142.869 44.5407 141.989 46.3527 141.445C46.8127 141.325 47.2447 141.213 47.6527 141.105C48.0567 140.993 48.4567 140.969 48.8127 140.905C49.5367 140.793 50.1447 140.697 50.6487 140.705C51.1327 140.689 51.5087 140.677 51.7847 140.669C52.0407 140.661 52.1687 140.665 52.1687 140.669H52.1767Z" fill="#DD1829"/>
<path d="M56.9054 160.033H55.3734L52.0294 155.373V152.313C52.0294 152.313 49.6614 152.169 49.9374 156.173C50.2174 160.181 49.9134 159.161 49.9134 159.161C49.9134 159.161 44.8814 159.181 44.4654 159.617C44.1614 159.933 44.0254 164.933 43.9694 167.641C43.9414 169.005 44.7814 170.273 46.0494 170.597C46.2294 170.645 46.4134 170.669 46.5894 170.669C47.8454 170.669 54.2534 169.649 54.2534 169.649H56.9014V160.033H56.9054Z" fill="#DD1829"/>
<path d="M61.2926 159.193L60.3526 169.677H57.7246V159.405L61.2926 159.193Z" fill="#DD1829"/>
<path d="M93.1686 277.966C108.416 262.718 108.416 237.997 93.1686 222.749C77.9209 207.502 53.1997 207.502 37.952 222.749C22.7044 237.997 22.7044 262.718 37.952 277.966C53.1997 293.213 77.9209 293.213 93.1686 277.966Z" fill="black"/>
<path d="M118.54 253.216L117.968 253.116C117.556 253.044 117.256 252.676 117.264 252.252C117.272 251.892 117.276 251.532 117.276 251.168C117.276 250.416 117.26 249.668 117.228 248.92C117.208 248.488 117.511 248.112 117.932 248.036L118.54 247.928C119.004 247.844 119.312 247.396 119.231 246.928L117.216 235.352C117.136 234.884 116.692 234.568 116.228 234.652L115.472 234.788C115.06 234.86 114.651 234.62 114.52 234.22C114.172 233.184 113.792 232.168 113.384 231.164C113.22 230.764 113.38 230.308 113.748 230.092L114.443 229.684C114.852 229.444 114.992 228.916 114.756 228.504L108.952 218.324C108.716 217.912 108.196 217.768 107.788 218.008L106.956 218.496C106.592 218.708 106.128 218.624 105.868 218.292C105.208 217.46 104.524 216.648 103.816 215.86C103.532 215.54 103.524 215.056 103.796 214.728L104.432 213.96C104.736 213.596 104.688 213.048 104.328 212.744L95.4355 205.188C95.0755 204.88 94.5355 204.928 94.2315 205.296L93.5275 206.144C93.2555 206.472 92.7915 206.548 92.4315 206.328C91.5475 205.78 90.6435 205.256 89.7235 204.76C89.3515 204.56 89.1795 204.108 89.3275 203.704L89.7075 202.652C89.8675 202.204 89.6395 201.708 89.1995 201.544L78.2875 197.524C77.8435 197.36 77.3555 197.592 77.1955 198.04L76.7955 199.148C76.6515 199.548 76.2395 199.784 75.8275 199.7C74.8195 199.492 73.8035 199.312 72.7795 199.164C72.3595 199.104 72.0515 198.74 72.0515 198.308V197.12C72.0515 196.644 71.6715 196.256 71.1995 196.256H59.5875C59.1155 196.256 58.7355 196.644 58.7355 197.12V198.308C58.7355 198.736 58.4235 199.1 58.0075 199.164C56.9795 199.312 55.9635 199.492 54.9595 199.7C54.5475 199.784 54.1355 199.548 53.9915 199.148L53.5915 198.04C53.4315 197.592 52.9395 197.36 52.4995 197.524L41.5875 201.544C41.1435 201.708 40.9155 202.204 41.0795 202.652L41.4595 203.704C41.6035 204.108 41.4355 204.56 41.0635 204.76C40.1435 205.256 39.2395 205.776 38.3555 206.328C37.9955 206.552 37.5315 206.472 37.2595 206.144L36.5555 205.296C36.2515 204.932 35.7155 204.884 35.3555 205.188L26.4635 212.744C26.1035 213.052 26.0555 213.596 26.3595 213.96L26.9955 214.728C27.2675 215.056 27.2635 215.54 26.9755 215.86C26.2675 216.648 25.5835 217.46 24.9235 218.292C24.6595 218.624 24.1995 218.708 23.8355 218.496L23.0035 218.008C22.5955 217.768 22.0755 217.912 21.8395 218.324L16.0355 228.504C15.7995 228.916 15.9395 229.444 16.3475 229.684L17.0435 230.092C17.4115 230.308 17.5675 230.768 17.4075 231.164C16.9995 232.168 16.6195 233.188 16.2715 234.22C16.1355 234.62 15.7315 234.86 15.3195 234.788L14.5635 234.652C14.0995 234.568 13.6555 234.884 13.5755 235.352L11.5595 246.928C11.4795 247.396 11.7875 247.844 12.2515 247.928L12.8595 248.036C13.2795 248.112 13.5795 248.488 13.5635 248.92C13.5315 249.664 13.5155 250.412 13.5155 251.168C13.5155 251.528 13.5155 251.892 13.5275 252.252C13.5355 252.676 13.2355 253.044 12.8235 253.116L12.2515 253.216C11.7875 253.3 11.4795 253.748 11.5595 254.216L13.5755 265.792C13.6555 266.26 14.0995 266.576 14.5635 266.492L14.9555 266.42C15.3755 266.344 15.7875 266.596 15.9155 267.004C16.2555 268.092 16.6275 269.164 17.0355 270.22C17.1875 270.616 17.0275 271.064 16.6675 271.276L16.3555 271.46C15.9475 271.7 15.8075 272.228 16.0435 272.64L21.8475 282.82C22.0835 283.232 22.6035 283.376 23.0115 283.136L23.2075 283.02C23.5755 282.804 24.0475 282.896 24.3075 283.236C25.0075 284.152 25.7315 285.044 26.4875 285.908C26.7635 286.228 26.7675 286.704 26.4995 287.032L26.3715 287.188C26.0675 287.552 26.1155 288.1 26.4755 288.404L35.3675 295.96C35.7275 296.268 36.2675 296.22 36.5675 295.852L36.6235 295.788C36.8955 295.46 37.3675 295.38 37.7275 295.612C38.7035 296.236 39.7035 296.832 40.7235 297.388C41.0915 297.592 41.2595 298.04 41.1155 298.44L41.0955 298.5C40.9355 298.948 41.1635 299.444 41.6035 299.608L52.5155 303.628C52.9595 303.792 53.4475 303.56 53.6075 303.112C53.7515 302.708 54.1675 302.468 54.5795 302.56C55.7155 302.804 56.8635 303.012 58.0235 303.176C58.4435 303.236 58.7515 303.604 58.7515 304.032C58.7515 304.508 59.1315 304.896 59.6035 304.896H71.2155C71.6875 304.896 72.0675 304.508 72.0675 304.032C72.0675 303.604 72.3755 303.24 72.7955 303.176C73.9555 303.008 75.1035 302.8 76.2395 302.56C76.6515 302.472 77.0675 302.708 77.2115 303.112C77.3715 303.564 77.8635 303.796 78.3035 303.632L89.2155 299.612C89.6595 299.448 89.8875 298.952 89.7235 298.504L89.7035 298.444C89.5595 298.044 89.7235 297.596 90.0955 297.392C91.1155 296.832 92.1155 296.24 93.0915 295.616C93.4515 295.388 93.9235 295.464 94.1955 295.792L94.2515 295.856C94.5555 296.22 95.0915 296.268 95.4555 295.964L104.348 288.408C104.708 288.1 104.756 287.556 104.452 287.192L104.324 287.036C104.052 286.712 104.056 286.232 104.336 285.912C105.092 285.044 105.82 284.152 106.516 283.24C106.776 282.9 107.248 282.808 107.616 283.024L107.812 283.14C108.22 283.38 108.74 283.236 108.976 282.824L114.78 272.644C115.016 272.232 114.876 271.704 114.468 271.464L114.156 271.28C113.792 271.068 113.632 270.62 113.788 270.224C114.192 269.168 114.568 268.096 114.908 267.008C115.035 266.596 115.448 266.348 115.868 266.424L116.26 266.496C116.724 266.58 117.168 266.264 117.248 265.796L119.264 254.22C119.344 253.752 119.035 253.304 118.572 253.22L118.54 253.216ZM65.5595 285.512C46.3835 285.512 30.8355 269.772 30.8355 250.356C30.8355 230.94 46.3835 215.2 65.5595 215.2C84.7355 215.2 100.284 230.94 100.284 250.356C100.284 269.772 84.7355 285.512 65.5595 285.512Z" fill="black"/>
<path d="M87.483 258.632L83.923 254.884L80.619 256.076L80.579 256.092L74.959 258.06L76.763 259.948L80.279 258.704L80.707 259.152L78.503 261.768L80.295 263.648L82.367 260.892L83.811 262.404L89.259 260.472M83.919 259.848L82.183 258.028L83.595 257.528L85.331 259.348L83.923 259.852L83.919 259.848Z" fill="white"/>
<path d="M97.3141 273.9L91.8941 275.82L86.4941 270.156L88.6061 269.412L92.2061 273.184L93.6101 272.688L90.0101 268.912L95.4542 266.976L100.862 272.644L98.7261 273.4L95.1141 269.612L93.7021 270.112L97.3141 273.9Z" fill="white"/>
<path d="M86.267 264.984L84.859 265.484L87.947 268.724C87.831 268.764 85.839 269.472 85.839 269.472L80.959 264.352L89.923 261.176L94.803 266.296L92.647 267.056L89.583 263.816L88.171 264.316L91.259 267.552C91.163 267.584 89.355 268.224 89.355 268.224L86.267 264.988V264.984Z" fill="white"/>
<path d="M73.7944 244.208L71.6784 244.968L74.2304 247.644L67.3984 250.064L69.1824 251.936L76.0104 249.516L77.1224 250.704L79.3584 253.02L70.2104 256.264L74.3224 257.324L83.2864 254.144" fill="#BA1623"/>
<path d="M68.3842 273.868L70.0242 268.968L67.4202 266.608L67.3842 266.58L63.0082 262.54L62.1882 265.02L64.9362 267.544L64.7402 268.132L61.3962 267.416L60.5762 269.884L63.9842 270.42L63.3242 272.404L67.5882 276.308M65.6322 271.3L66.4242 268.912L67.5282 269.924L66.7362 272.308L65.6322 271.3Z" fill="white"/>
<path d="M59.5193 289.716L55.2793 285.836L57.7433 278.408L59.3953 279.92L57.7513 284.872L58.8513 285.88L60.4953 280.928L64.7593 284.828L62.2953 292.26L60.6233 290.732L62.2713 285.764L61.1673 284.752L59.5193 289.716Z" fill="white"/>
<path d="M62.2029 275.776L61.1029 274.768L59.6949 279.016C59.6029 278.932 58.0469 277.504 58.0469 277.504L60.2749 270.792L67.2869 277.216L65.0589 283.928L63.3749 282.38L64.7949 278.152L63.6909 277.14L62.2829 281.388C62.2069 281.32 60.7949 280.024 60.7949 280.024L62.2029 275.78V275.776Z" fill="white"/>
<path d="M74.6913 255.012L73.0273 253.5L71.8633 257.008L66.5193 252.116L65.7073 254.568L71.0513 259.46L70.5193 261L69.5233 264.06L62.3633 257.508L63.3633 261.632L70.3753 268.056" fill="#BA1623"/>
<path d="M45.9675 264.16L51.0635 263.304L51.9234 259.896L51.9314 259.852L53.4434 254.092L50.8675 254.532L49.9314 258.144L49.3194 258.248L48.3834 254.956L45.8194 255.392L46.9474 258.652L44.8875 259.004L43.4395 264.6M46.9434 260.52L49.4234 260.1L49.0474 261.552L46.5714 261.972L46.9434 260.524V260.52Z" fill="white"/>
<path d="M27.8072 263.772L29.2472 258.208L36.9592 256.896L36.3992 259.064L31.2592 259.936L30.8832 261.384L36.0272 260.508L34.5872 266.104L26.8672 267.416L27.4312 265.224L32.5952 264.348L32.9672 262.896L27.8072 263.772Z" fill="white"/>
<path d="M41.3794 259.6L41.7554 258.156L37.3434 258.904C37.3754 258.784 37.9034 256.74 37.9034 256.74L44.8754 255.556L42.4954 264.764L35.5234 265.948L36.0994 263.736L40.4994 263.008L40.8754 261.556L36.4634 262.304C36.4874 262.204 36.9714 260.348 36.9714 260.348L41.3794 259.6Z" fill="white"/>
<path d="M65.5753 260.876L66.1313 258.696L62.4833 259.316L64.2953 252.3L61.7513 252.732L59.9353 259.748L58.3273 260.004L55.1593 260.56L57.5833 251.164L54.4113 253.98L52.0312 263.188" fill="#BA1623"/>
<path d="M44.0115 239.808L47.1594 243.908L50.5714 243.068L50.6155 243.056L56.4115 241.684L54.8155 239.616L51.1875 240.484L50.8074 239.992L53.2714 237.62L51.6834 235.56L49.3354 238.084L48.0594 236.428L42.4395 237.78M47.6875 238.96L49.2234 240.952L47.7675 241.3L46.2314 239.312L47.6875 238.96Z" fill="white"/>
<path d="M35.8319 223.596L41.4199 222.252L46.1959 228.448L44.0239 228.968L40.8359 224.84L39.3839 225.188L42.5719 229.316L36.9559 230.676L32.1719 224.472L34.3719 223.944L37.5679 228.088L39.0279 227.736L35.8319 223.596Z" fill="white"/>
<path d="M45.8872 233.616L47.3392 233.268L44.6072 229.724C44.7272 229.696 46.7832 229.2 46.7832 229.2L51.1032 234.8L41.8552 237.024L37.5352 231.424L39.7592 230.896L42.4712 234.44L43.9272 234.088L41.1952 230.544C41.2952 230.52 43.1592 230.076 43.1592 230.076L45.8912 233.616H45.8872Z" fill="white"/>
<path d="M56.1167 255.58L58.3047 255.048L56.0447 252.116L63.0927 250.424L61.5127 248.38L54.4687 250.072L53.4887 248.772L51.5087 246.236L60.9447 243.964L56.9647 242.484L47.7207 244.708" fill="#BA1623"/>
<path d="M64.5991 226.648L62.4551 231.352L64.7991 233.972L64.8311 234.004L68.7631 238.476L69.8391 236.096L67.3671 233.3L67.6231 232.736L70.8751 233.8L71.9471 231.432L68.6151 230.544L69.4751 228.64L65.6431 224.312M67.0631 229.5L66.0271 231.792L65.0351 230.672L66.0711 228.384L67.0671 229.504L67.0631 229.5Z" fill="white"/>
<path d="M75.0717 211.812L78.8797 216.116L75.6557 223.244L74.1717 221.568L76.3237 216.816L75.3357 215.7L73.1837 220.452L69.3477 216.128L72.5757 208.996L74.0797 210.688L71.9197 215.46L72.9117 216.58L75.0717 211.812Z" fill="white"/>
<path d="M70.9431 225.396L71.9311 226.516L73.7751 222.44C73.8591 222.532 75.2591 224.116 75.2591 224.116L72.3431 230.56L66.0391 223.436L68.9551 216.992L70.4671 218.708L68.6111 222.764L69.6031 223.884L71.4471 219.808C71.5151 219.884 72.7831 221.32 72.7831 221.32L70.9391 225.392L70.9431 225.396Z" fill="white"/>
<path d="M56.3555 244.74L57.8515 246.42L59.3755 243.052L64.1795 248.476L65.2435 246.124L60.4435 240.7L61.1315 239.22L62.4395 236.284L68.8755 243.548L68.3155 239.34L62.0115 232.22" fill="#BA1623"/>
<path d="M85.8806 238.648L80.7206 238.964L79.5086 242.264L79.4966 242.308L77.3926 247.88L80.0006 247.712L81.3086 244.22L81.9286 244.18L82.5166 247.552L85.1126 247.388L84.3326 244.028L86.4166 243.896L88.4406 238.48M84.5286 242.172L82.0166 242.332L82.5406 240.928L85.0486 240.768L84.5286 242.172Z" fill="white"/>
<path d="M103.896 240.928L101.884 246.312L94.0762 246.812L94.8602 244.716L100.064 244.384L100.588 242.984L95.3842 243.316L97.4002 237.904L105.212 237.404L104.424 239.528L99.2002 239.86L98.6762 241.26L103.896 240.928Z" fill="white"/>
<path d="M89.9646 243.665L89.4406 245.065L93.9046 244.781C93.8606 244.897 93.1205 246.877 93.1205 246.877L86.0605 247.325L89.3885 238.417L96.4485 237.969L95.6445 240.109L91.1926 240.373L90.6686 241.777L95.1325 241.493C95.0965 241.589 94.4245 243.385 94.4245 243.385L89.9605 243.669L89.9646 243.665Z" fill="white"/>
<path d="M66.0359 239.864L65.2559 241.972L68.9438 241.736L66.4078 248.524L68.9879 248.36L71.5239 241.572L73.1519 241.488L76.3599 241.264L72.9679 250.356L76.4198 247.888L79.7479 238.98" fill="#BA1623"/>
<path d="M65.3788 206.284C41.2188 206.284 21.6348 226.112 21.6348 250.572C21.6348 275.032 41.2188 294.86 65.3788 294.86C89.5388 294.86 109.123 275.032 109.123 250.572C109.123 226.112 89.5388 206.284 65.3788 206.284ZM65.3788 292.264C42.6388 292.264 24.2028 273.6 24.2028 250.576C24.2028 227.552 42.6388 208.888 65.3788 208.888C88.1188 208.888 106.555 227.552 106.555 250.576C106.555 273.6 88.1188 292.264 65.3788 292.264Z" fill="white"/>
</svg>
