<svg width="222" height="304" viewBox="0 0 222 304" fill="none" xmlns="http://www.w3.org/2000/svg">
<path d="M189.484 303.328L86.504 303.268C74.12 303.26 64.084 293.216 64.084 280.832L64.136 22.6555C64.136 10.2635 74.188 0.219544 86.58 0.227544L189.56 0.287544C201.944 0.295544 211.98 10.3395 211.98 22.7235L211.928 280.9C211.928 293.292 201.876 303.336 189.484 303.328Z" fill="black"/>
<path d="M190.749 4.41999L170.493 4.32399C167.777 4.31199 114.053 4.05599 111.337 4.04399L104.213 4.00799L86.4847 3.92399C77.6807 3.88399 70.5127 11.192 70.4727 20.244L69.3927 283.132C69.3567 292.184 76.4567 299.548 85.2567 299.592L189.521 300.088C198.325 300.132 205.493 292.824 205.533 283.768L206.613 20.88C206.649 11.832 199.549 4.46399 190.749 4.41999Z" fill="white"/>
<path d="M151.585 8.11133H127.861C126.124 8.11133 124.717 9.51895 124.717 11.2553V12.6433C124.717 14.3797 126.124 15.7873 127.861 15.7873H151.585C153.321 15.7873 154.729 14.3797 154.729 12.6433V11.2553C154.729 9.51895 153.321 8.11133 151.585 8.11133Z" fill="black"/>
<path d="M128.487 273.575C128.495 274.663 127.619 275.555 126.531 275.563C125.443 275.571 124.551 274.695 124.543 273.607C124.535 272.519 125.411 271.627 126.499 271.619C127.587 271.611 128.479 272.487 128.487 273.575Z" fill="#1A2E35"/>
<path d="M139.54 273.487C139.548 274.575 138.672 275.467 137.584 275.475C136.496 275.483 135.604 274.607 135.596 273.519C135.588 272.431 136.464 271.539 137.552 271.531C138.64 271.523 139.532 272.399 139.54 273.487Z" fill="#1A2E35"/>
<path d="M150.594 273.396C150.602 274.484 149.726 275.376 148.638 275.384C147.55 275.392 146.658 274.516 146.65 273.428C146.642 272.34 147.518 271.448 148.606 271.44C149.694 271.432 150.586 272.308 150.594 273.396Z" fill="#1A2E35"/>
<path d="M190.051 34.8639C190.051 34.9239 187.455 34.9959 184.251 35.0199C181.047 35.0479 178.451 35.0199 178.451 34.9599C178.451 34.8999 181.047 34.8279 184.251 34.8039C187.455 34.7759 190.051 34.8039 190.051 34.8639Z" fill="#1A2E35"/>
<path d="M190.075 37.8317C190.075 37.8917 187.479 37.9637 184.275 37.9877C181.071 38.0157 178.475 37.9877 178.475 37.9277C178.475 37.8677 181.071 37.7957 184.275 37.7717C187.479 37.7437 190.075 37.7717 190.075 37.8317Z" fill="#1A2E35"/>
<path d="M190.1 40.7994C190.1 40.8594 187.504 40.9314 184.3 40.9554C181.096 40.9834 178.5 40.9554 178.5 40.8954C178.5 40.8354 181.096 40.7634 184.3 40.7394C187.504 40.7114 190.1 40.7394 190.1 40.7994Z" fill="#1A2E35"/>
<path d="M84.5514 44.1871C84.5514 44.1871 84.6394 44.1791 84.7914 44.1711C84.9754 44.1671 85.1954 44.1591 85.4634 44.1511C86.0874 44.1391 86.9154 44.1191 87.9434 44.0951L87.8834 44.1591C87.8754 43.6111 87.8674 43.0111 87.8554 42.3631C87.8554 42.0311 87.8274 41.7111 87.8594 41.3311C87.9274 40.9511 88.2634 40.6151 88.6834 40.5751C89.0794 40.5671 89.4354 40.5511 89.8634 40.5711C90.3034 40.6231 90.6794 41.0511 90.6674 41.5151C90.6754 42.3511 90.6874 43.2271 90.6954 44.1351L90.5914 44.0351C91.5954 44.0271 92.6394 44.0151 93.7154 44.0031L93.6114 44.1111C93.5994 42.8511 93.5874 41.5511 93.5754 40.2191C93.5754 39.8871 93.5714 39.5551 93.5674 39.2271C93.5674 39.0831 93.5194 38.9391 93.4394 38.8191C93.3674 38.7031 93.2354 38.5991 93.1234 38.4791C92.6594 38.0231 92.2034 37.5751 91.7554 37.1311C91.3074 36.6911 90.8674 36.2551 90.4394 35.8311C90.2234 35.6191 90.0114 35.4071 89.7994 35.1991C89.5794 34.9871 89.4074 34.7671 89.1474 34.7151C88.8954 34.6471 88.6234 34.7031 88.4194 34.8551C88.2274 35.0191 88.0274 35.2431 87.8354 35.4271C87.4514 35.8151 87.0754 36.1911 86.7154 36.5591C86.0114 37.2911 85.2794 37.9591 84.7434 38.5951C84.5154 38.9471 84.6034 39.3791 84.5874 39.7671C84.5874 40.1551 84.5874 40.5231 84.5874 40.8711C84.5874 41.5511 84.5834 42.1431 84.5794 42.6471C84.5754 43.1071 84.5714 43.4791 84.5674 43.7791C84.5674 44.0391 84.5554 44.1871 84.5554 44.1871C84.5554 44.1871 84.5434 44.0631 84.5354 43.8111C84.5274 43.5151 84.5194 43.1471 84.5074 42.6951C84.4954 42.1871 84.4834 41.5911 84.4714 40.9071C84.4634 40.5551 84.4594 40.1791 84.4514 39.7871C84.4514 39.5871 84.4474 39.3831 84.4434 39.1751C84.4434 38.9551 84.4994 38.7271 84.6154 38.5271C85.1914 37.8231 85.8834 37.1951 86.5914 36.4391C86.9514 36.0711 87.3234 35.6911 87.7034 35.2991C87.9034 35.1031 88.0674 34.9071 88.3034 34.7031C88.5514 34.5151 88.8914 34.4471 89.1994 34.5271C89.5274 34.5991 89.7394 34.8671 89.9434 35.0591C90.1554 35.2671 90.3674 35.4751 90.5834 35.6871C91.0154 36.1111 91.4554 36.5431 91.9034 36.9831C92.3514 37.4231 92.8074 37.8711 93.2714 38.3271C93.3834 38.4431 93.5114 38.5431 93.6194 38.7031C93.7194 38.8551 93.7754 39.0391 93.7794 39.2231C93.7794 39.5511 93.7834 39.8871 93.7874 40.2191C93.7994 41.5511 93.8074 42.8551 93.8154 44.1111V44.2191H93.7114C92.6354 44.2271 91.5914 44.2351 90.5874 44.2391H90.4874V44.1391C90.4834 43.2311 90.4794 42.3551 90.4714 41.5191C90.4834 41.1351 90.1874 40.7991 89.8314 40.7511C89.4674 40.7311 89.0474 40.7431 88.6954 40.7511C88.3554 40.7791 88.0714 41.0511 88.0114 41.3671C87.9794 41.6831 88.0034 42.0471 87.9994 42.3671C87.9994 43.0151 87.9994 43.6151 87.9994 44.1631V44.2271H87.9394C86.8994 44.2231 86.0554 44.2151 85.4234 44.2151C85.1634 44.2151 84.9474 44.2071 84.7674 44.2071C84.6194 44.2071 84.5474 44.1991 84.5514 44.1951V44.1871Z" fill="#1A2E35"/>
<path d="M196.433 96.7991C196.433 96.8991 170.601 96.9792 138.741 96.9792C106.881 96.9792 81.0449 96.8991 81.0449 96.7991C81.0449 96.6991 106.873 96.6191 138.741 96.6191C170.609 96.6191 196.433 96.6991 196.433 96.7991Z" fill="#E1E1E1"/>
<path d="M193.728 226.123C193.728 226.223 167.896 226.303 136.036 226.303C104.176 226.303 78.3398 226.223 78.3398 226.123C78.3398 226.023 104.168 225.943 136.036 225.943C167.904 225.943 193.728 226.023 193.728 226.123Z" fill="#E1E1E1"/>
<path d="M167.631 234.1C167.631 234.2 153.283 234.28 135.583 234.28C117.883 234.28 103.531 234.2 103.531 234.1C103.531 234 117.879 233.92 135.583 233.92C153.287 233.92 167.631 234 167.631 234.1Z" fill="#E1E1E1"/>
<path d="M91.4238 127.724L93.6078 128.908L92.6238 130.552L90.4198 129.248L90.4598 131.676H88.5758L88.5958 129.228L86.3878 130.552L85.4238 128.908L87.6118 127.724L85.4238 126.52L86.3878 124.876L88.5958 126.2L88.5758 123.752H90.4598L90.4198 126.2L92.6238 124.876L93.6078 126.52L91.4238 127.724Z" fill="#DD1829"/>
<path d="M116.48 127.724L118.664 128.908L117.68 130.552L115.476 129.248L115.516 131.676H113.632L113.652 129.228L111.444 130.552L110.48 128.908L112.668 127.724L110.48 126.52L111.444 124.876L113.652 126.2L113.632 123.752H115.516L115.476 126.2L117.68 124.876L118.664 126.52L116.48 127.724Z" fill="#DD1829"/>
<path d="M140.873 127.724L143.057 128.908L142.073 130.552L139.865 129.248L139.905 131.676H138.021L138.041 129.228L135.837 130.552L134.873 128.908L137.057 127.724L134.873 126.52L135.837 124.876L138.041 126.2L138.021 123.752H139.905L139.865 126.2L142.073 124.876L143.057 126.52L140.873 127.724Z" fill="#DD1829"/>
<path d="M164.5 127.724L166.684 128.908L165.7 130.552L163.496 129.248L163.536 131.676H161.652L161.672 129.228L159.468 130.552L158.504 128.908L160.688 127.724L158.504 126.52L159.468 124.876L161.672 126.2L161.652 123.752H163.536L163.496 126.2L165.7 124.876L166.684 126.52L164.5 127.724Z" fill="#DD1829"/>
<path d="M187.945 127.724L190.129 128.908L189.145 130.552L186.941 129.248L186.981 131.676H185.097L185.117 129.228L182.909 130.552L181.945 128.908L184.129 127.724L181.945 126.52L182.909 124.876L185.117 126.2L185.097 123.752H186.981L186.941 126.2L189.145 124.876L190.129 126.52L187.945 127.724Z" fill="#DD1829"/>
<path d="M95.3126 142.916H84.7366C82.0166 142.916 79.8086 140.704 79.8086 137.988V119.224C79.8086 116.504 82.0206 114.296 84.7366 114.296H95.3126C98.0326 114.296 100.241 116.508 100.241 119.224V137.988C100.241 140.708 98.0286 142.916 95.3126 142.916ZM84.7366 114.64C82.2126 114.64 80.1566 116.696 80.1566 119.22V137.984C80.1566 140.512 82.2126 142.564 84.7366 142.564H95.3126C97.8366 142.564 99.8926 140.508 99.8926 137.984V119.22C99.8926 116.696 97.8366 114.64 95.3126 114.64H84.7366Z" fill="#1A2E35"/>
<path d="M119.865 142.916H109.289C106.569 142.916 104.361 140.704 104.361 137.988V119.224C104.361 116.504 106.573 114.296 109.289 114.296H119.865C122.585 114.296 124.793 116.508 124.793 119.224V137.988C124.793 140.708 122.581 142.916 119.865 142.916ZM109.289 114.64C106.765 114.64 104.709 116.696 104.709 119.22V137.984C104.709 140.512 106.765 142.564 109.289 142.564H119.865C122.389 142.564 124.445 140.508 124.445 137.984V119.22C124.445 116.696 122.389 114.64 119.865 114.64H109.289Z" fill="#1A2E35"/>
<path d="M143.736 142.916H133.16C130.44 142.916 128.232 140.704 128.232 137.988V119.224C128.232 116.504 130.444 114.296 133.16 114.296H143.736C146.456 114.296 148.664 116.508 148.664 119.224V137.988C148.664 140.708 146.452 142.916 143.736 142.916ZM133.16 114.64C130.636 114.64 128.58 116.696 128.58 119.22V137.984C128.58 140.512 130.636 142.564 133.16 142.564H143.736C146.26 142.564 148.316 140.508 148.316 137.984V119.22C148.316 116.696 146.26 114.64 143.736 114.64H133.16Z" fill="#1A2E35"/>
<path d="M167.885 142.916H157.309C154.589 142.916 152.381 140.704 152.381 137.988V119.224C152.381 116.504 154.593 114.296 157.309 114.296H167.885C170.605 114.296 172.813 116.508 172.813 119.224V137.988C172.813 140.708 170.601 142.916 167.885 142.916ZM157.309 114.64C154.781 114.64 152.729 116.696 152.729 119.22V137.984C152.729 140.512 154.785 142.564 157.309 142.564H167.885C170.413 142.564 172.465 140.508 172.465 137.984V119.22C172.465 116.696 170.409 114.64 167.885 114.64H157.309Z" fill="#1A2E35"/>
<path d="M191.328 142.916H180.752C178.032 142.916 175.824 140.704 175.824 137.988V119.224C175.824 116.504 178.036 114.296 180.752 114.296H191.328C194.048 114.296 196.256 116.508 196.256 119.224V137.988C196.256 140.708 194.044 142.916 191.328 142.916ZM180.752 114.64C178.224 114.64 176.172 116.696 176.172 119.22V137.984C176.172 140.512 178.228 142.564 180.752 142.564H191.328C193.856 142.564 195.908 140.508 195.908 137.984V119.22C195.908 116.696 193.852 114.64 191.328 114.64H180.752Z" fill="#1A2E35"/>
<path d="M191.969 188.68H86.4287C82.8631 188.68 79.9727 191.57 79.9727 195.136V202.972C79.9727 206.537 82.8631 209.428 86.4287 209.428H191.969C195.534 209.428 198.425 206.537 198.425 202.972V195.136C198.425 191.57 195.534 188.68 191.969 188.68Z" fill="#DD1829"/>
<path d="M124.248 194.884H127.436C129.732 194.884 131.308 196.268 131.308 198.392C131.308 200.516 129.732 201.904 127.436 201.904H124.248V194.884ZM127.356 200.568C128.748 200.568 129.664 199.736 129.664 198.392C129.664 197.048 128.752 196.216 127.356 196.216H125.872V200.568H127.356Z" fill="white"/>
<path d="M132.02 199.204C132.02 197.58 133.272 196.428 134.988 196.428C136.704 196.428 137.948 197.58 137.948 199.204C137.948 200.828 136.704 201.98 134.988 201.98C133.272 201.98 132.02 200.828 132.02 199.204ZM136.36 199.204C136.36 198.272 135.768 197.708 134.988 197.708C134.208 197.708 133.604 198.268 133.604 199.204C133.604 200.14 134.204 200.7 134.988 200.7C135.772 200.7 136.36 200.14 136.36 199.204Z" fill="white"/>
<path d="M144.508 198.816V201.904H142.944V199.056C142.944 198.184 142.544 197.784 141.852 197.784C141.1 197.784 140.56 198.244 140.56 199.236V201.904H138.996V196.508H140.492V197.14C140.912 196.68 141.544 196.428 142.276 196.428C143.548 196.428 144.512 197.168 144.512 198.816H144.508Z" fill="white"/>
<path d="M151.24 199.648H147.16C147.312 200.32 147.884 200.732 148.704 200.732C149.276 200.732 149.688 200.56 150.056 200.212L150.888 201.112C150.388 201.684 149.636 201.984 148.664 201.984C146.8 201.984 145.584 200.812 145.584 199.208C145.584 197.604 146.816 196.432 148.46 196.432C150.104 196.432 151.268 197.496 151.268 199.228C151.268 199.348 151.248 199.52 151.236 199.648H151.24ZM147.14 198.736H149.796C149.684 198.052 149.176 197.612 148.472 197.612C147.768 197.612 147.248 198.044 147.14 198.736Z" fill="white"/>
<path d="M221.301 303.52C221.301 303.62 181.005 303.7 131.305 303.7C81.6048 303.7 41.3008 303.62 41.3008 303.52C41.3008 303.42 81.5888 303.34 131.305 303.34C181.021 303.34 221.301 303.42 221.301 303.52Z" fill="#1A2E35"/>
<path d="M80.6133 236.844L81.4413 237.884C81.1733 237.532 80.8973 237.184 80.6133 236.844Z" fill="#183444"/>
<path d="M81.5039 269.632C84.7839 265.248 86.7319 259.816 86.7599 253.924L81.5039 269.632Z" fill="black"/>
<path d="M82.6534 239.404L81.4414 237.88C81.8014 238.356 82.1374 238.844 82.4654 239.344L82.6534 239.404Z" fill="#BD1621"/>
<path d="M2.88869 241.06C2.88869 240.192 2.90869 239.324 2.94469 238.464C2.96469 237.964 2.61669 237.528 2.13269 237.44L1.43269 237.316C0.896689 237.22 0.536689 236.704 0.632689 236.16L2.96069 222.784C3.05669 222.24 3.56469 221.88 4.10469 221.976L4.98069 222.132C5.45669 222.216 5.92869 221.94 6.08469 221.476C6.48869 220.28 6.92469 219.104 7.39669 217.944C7.58469 217.484 7.40469 216.952 6.97669 216.704L6.17269 216.232C5.70069 215.956 5.54069 215.344 5.81269 214.868L12.5207 203.104C12.7927 202.628 13.3967 202.464 13.8687 202.74L14.8327 203.304C15.2527 203.548 15.7887 203.452 16.0927 203.068C16.8567 202.108 17.6487 201.168 18.4647 200.256C18.7967 199.888 18.8047 199.328 18.4887 198.948L17.7527 198.06C17.4047 197.636 17.4567 197.008 17.8727 196.652L28.1487 187.92C28.5647 187.564 29.1887 187.62 29.5367 188.044L30.3487 189.024C30.6607 189.4 31.2007 189.492 31.6127 189.236C32.6367 188.6 33.6807 188 34.7407 187.424C35.1727 187.192 35.3687 186.668 35.2007 186.204L34.7647 184.988C34.5767 184.468 34.8407 183.896 35.3527 183.708L47.9607 179.064C48.4727 178.876 49.0367 179.144 49.2247 179.66L49.6847 180.94C49.8527 181.404 50.3287 181.676 50.8047 181.576C51.9687 181.336 53.1407 181.128 54.3287 180.96C54.8127 180.892 55.1727 180.468 55.1727 179.972V178.596C55.1727 178.044 55.6127 177.596 56.1567 177.596H69.5727C70.1167 177.596 70.5567 178.044 70.5567 178.596V179.972C70.5567 180.468 70.9167 180.888 71.4007 180.96C72.5887 181.132 73.7607 181.336 74.9247 181.576C75.4007 181.676 75.8767 181.404 76.0447 180.94L76.5047 179.66C76.6927 179.14 77.2567 178.876 77.7687 179.064L90.3767 183.708C90.8887 183.896 91.1527 184.468 90.9647 184.988L90.5287 186.204C90.3607 186.668 90.5567 187.192 90.9887 187.424C92.0527 187.996 93.0927 188.6 94.1167 189.236C94.5327 189.492 95.0687 189.4 95.3807 189.024L96.1927 188.044C96.5447 187.62 97.1647 187.568 97.5807 187.92L107.857 196.652C108.273 197.008 108.329 197.636 107.977 198.06L107.241 198.948C106.925 199.328 106.933 199.888 107.265 200.256C108.085 201.168 108.877 202.108 109.637 203.068C109.941 203.452 110.477 203.548 110.897 203.304L111.861 202.74C112.333 202.464 112.937 202.628 113.209 203.104L119.917 214.868C120.189 215.344 120.029 215.956 119.557 216.232L118.753 216.704C118.325 216.952 118.145 217.484 118.333 217.944C118.805 219.104 119.245 220.284 119.645 221.476C119.801 221.94 120.269 222.216 120.749 222.132L121.625 221.976C122.161 221.88 122.673 222.244 122.769 222.784L125.097 236.16C125.193 236.704 124.833 237.22 124.297 237.316L123.597 237.44C123.113 237.528 122.761 237.964 122.785 238.464C122.821 239.324 122.841 240.192 122.841 241.06C122.841 241.476 122.837 241.896 122.829 242.312C122.817 242.804 123.165 243.228 123.641 243.312L124.301 243.428C124.837 243.524 125.197 244.04 125.101 244.584L122.773 257.96C122.677 258.504 122.169 258.864 121.629 258.768L121.177 258.688C120.693 258.6 120.217 258.888 120.069 259.364C119.677 260.62 119.245 261.86 118.777 263.08C118.601 263.536 118.785 264.056 119.205 264.3L119.569 264.512C120.041 264.788 120.201 265.4 119.929 265.876L113.221 277.64C112.949 278.116 112.345 278.28 111.873 278.004L111.645 277.872C111.221 277.624 110.677 277.728 110.377 278.124C109.569 279.184 108.729 280.212 107.857 281.212C107.537 281.58 107.533 282.132 107.845 282.508L107.993 282.688C108.341 283.112 108.289 283.74 107.873 284.096L97.5967 292.828C97.1807 293.184 96.5567 293.128 96.2087 292.704L96.1447 292.628C95.8287 292.248 95.2847 292.156 94.8687 292.424C93.7407 293.148 92.5847 293.832 91.4087 294.48C90.9807 294.716 90.7927 295.232 90.9567 295.696L90.9807 295.764C91.1687 296.284 90.9047 296.856 90.3927 297.044L77.7847 301.688C77.2727 301.876 76.7087 301.608 76.5207 301.092C76.3527 300.624 75.8727 300.348 75.3967 300.452C74.0847 300.732 72.7607 300.972 71.4167 301.168C70.9327 301.236 70.5767 301.66 70.5767 302.156C70.5767 302.708 70.1367 303.156 69.5927 303.156H56.1767C55.6327 303.156 55.1927 302.708 55.1927 302.156C55.1927 301.66 54.8367 301.24 54.3527 301.168C53.0127 300.976 51.6847 300.736 50.3727 300.452C49.8927 300.348 49.4167 300.624 49.2487 301.088C49.0607 301.608 48.4967 301.876 47.9847 301.688L35.3767 297.044C34.8647 296.856 34.6007 296.284 34.7887 295.764L34.8127 295.696C34.9807 295.232 34.7887 294.716 34.3607 294.48C33.1807 293.832 32.0287 293.148 30.9007 292.424C30.4847 292.16 29.9407 292.248 29.6247 292.628L29.5607 292.704C29.2127 293.128 28.5887 293.18 28.1727 292.828L17.8967 284.096C17.4807 283.74 17.4247 283.112 17.7767 282.688L17.9247 282.508C18.2367 282.132 18.2327 281.58 17.9127 281.212C17.0407 280.212 16.2007 279.18 15.3927 278.124C15.0927 277.732 14.5487 277.624 14.1247 277.872L13.8967 278.004C13.4247 278.28 12.8207 278.116 12.5487 277.64L5.84069 265.876C5.56869 265.4 5.72869 264.788 6.20069 264.512L6.56469 264.3C6.98469 264.056 7.16869 263.536 6.99269 263.08C6.52469 261.86 6.09269 260.62 5.70069 259.364C5.55269 258.888 5.07669 258.6 4.59269 258.688L4.14069 258.768C3.60469 258.864 3.09269 258.5 2.99669 257.96L0.668687 244.584C0.572687 244.04 0.932687 243.524 1.46869 243.428L2.12869 243.312C2.60469 243.228 2.95269 242.804 2.94069 242.312C2.93269 241.896 2.92869 241.48 2.92869 241.06H2.88869Z" fill="black"/>
<path d="M62.8558 288.143C88.9126 288.143 110.036 266.757 110.036 240.375C110.036 213.994 88.9126 192.607 62.8558 192.607C36.799 192.607 15.6758 213.994 15.6758 240.375C15.6758 266.757 36.799 288.143 62.8558 288.143Z" fill="#C1272D"/>
<path d="M62.8572 283.908C86.6011 283.908 105.849 264.418 105.849 240.376C105.849 216.334 86.6011 196.844 62.8572 196.844C39.1134 196.844 19.8652 216.334 19.8652 240.376C19.8652 264.418 39.1134 283.908 62.8572 283.908Z" fill="black"/>
<path d="M63.0601 272.588C80.7686 272.588 95.1241 258.054 95.1241 240.124C95.1241 222.195 80.7686 207.66 63.0601 207.66C45.3516 207.66 30.9961 222.195 30.9961 240.124C30.9961 258.054 45.3516 272.588 63.0601 272.588Z" fill="#183444"/>
<path d="M63.0601 272.588C80.7686 272.588 95.1241 258.054 95.1241 240.124C95.1241 222.195 80.7686 207.66 63.0601 207.66C45.3516 207.66 30.9961 222.195 30.9961 240.124C30.9961 258.054 45.3516 272.588 63.0601 272.588Z" fill="black"/>
<path d="M56.4082 241.692C56.4082 245.012 59.0682 247.704 62.3482 247.704C65.6282 247.704 68.2882 245.012 68.2882 241.692C68.2882 238.372 65.6282 235.68 62.3482 235.68C59.0682 235.68 56.4082 238.372 56.4082 241.692Z" fill="black"/>
<path d="M79.2847 246.671L75.6007 247.035L71.2327 260.179L65.3967 260.755L69.7967 247.607L71.4207 242.743L93.9847 240.515C93.9847 240.467 93.9847 240.423 93.9847 240.375C93.9847 234.095 92.1207 228.255 88.9247 223.367L68.2127 216.791L69.0567 224.031L69.4847 227.707L82.7007 231.847L83.3807 237.671L70.1567 233.499L65.2647 231.963L62.6407 209.439L81.3647 215.343C76.1887 211.511 69.7847 209.239 62.8527 209.239C54.6367 209.239 47.1687 212.427 41.6047 217.627L47.4927 213.423L39.7607 233.979L47.0367 233.515L50.7327 233.279L55.5567 220.295L61.4087 219.923L56.5527 232.907L54.7607 237.715L31.7367 239.407L39.2767 220.051C34.5727 225.507 31.7207 232.603 31.7207 240.371C31.7207 248.895 35.1487 256.615 40.7007 262.239C38.8367 260.299 36.3727 256.391 36.3727 256.391L57.0607 263.763L56.4687 256.495L56.1687 252.807L43.1047 248.211L42.6287 242.367L55.6967 246.995L60.5327 248.703L62.3687 271.303L43.2047 264.515C48.5647 268.883 55.4007 271.503 62.8527 271.503C69.0087 271.503 74.7447 269.707 79.5767 266.623L86.5407 245.947L79.2847 246.663V246.671Z" fill="black"/>
<path d="M93.8443 271.366C110.96 254.25 110.96 226.5 93.8443 209.384C76.7284 192.268 48.9781 192.268 31.8622 209.384C14.7463 226.5 14.7463 254.25 31.8622 271.366C48.9781 288.482 76.7284 288.482 93.8443 271.366Z" fill="#D2CED3"/>
<path d="M65.9646 229.92L73.2886 231.776L92.2006 236.976L91.2325 228.652L72.3406 222.736L71.7286 217.48L70.5205 207.132L100.125 216.528C99.5765 215.688 99.0046 214.864 98.4006 214.064L97.0085 212.316C94.7445 209.604 92.1605 207.168 89.3205 205.064L62.5605 196.624L65.9686 229.916L65.9646 229.92Z" fill="#DD1829"/>
<g filter="url(#filter0_d_1915_13065)">
<path d="M107.517 239.624L72.7648 243.06L70.5768 249.988L65.3848 269.464L73.9848 268.616L80.4248 249.244L85.8528 248.708L96.5448 247.652L86.2808 278.124C86.7688 277.812 87.2528 277.492 87.7288 277.164L91.2808 274.436C93.9248 272.196 96.3168 269.668 98.3928 266.892L107.513 239.644C107.513 239.644 107.513 239.632 107.513 239.628L107.517 239.624Z" fill="#DD1829"/>
</g>
<path d="M60.8972 251.44L53.0852 248.864L34.3012 243.172L34.9812 251.544L53.7012 258.128L54.1332 263.416L54.9812 273.828L25.0332 263.264C27.2572 266.988 29.4372 269.96 31.5412 271.64C32.6772 272.792 33.8772 273.88 35.1332 274.904L62.5932 284.632L60.9052 251.44H60.8972Z" fill="#DD1829"/>
<path d="M52.9894 236.784L54.8374 229.384L62.0454 210.116L53.3654 210.668L46.2094 229.932L40.7294 230.284L29.9334 230.972L41.4054 200.472L32.6694 206.708C31.4534 207.844 30.3014 209.048 29.2134 210.308L18.0254 239.028L52.9934 236.788L52.9894 236.784Z" fill="#DD1829"/>
<path d="M64.8174 252.386C71.4522 251.305 75.9539 245.049 74.8721 238.414C73.7904 231.78 67.5349 227.278 60.9001 228.36C54.2653 229.441 49.7636 235.697 50.8454 242.332C51.9271 248.967 58.1826 253.468 64.8174 252.386Z" fill="#DD1829"/>
<path d="M68.6966 246.219C71.9239 242.991 71.9239 237.759 68.6966 234.531C65.4693 231.304 60.2368 231.304 57.0095 234.531C53.7823 237.759 53.7822 242.991 57.0095 246.219C60.2368 249.446 65.4693 249.446 68.6966 246.219Z" fill="#D2CED3"/>
<path d="M66.5155 246.121C69.6384 244.111 70.541 239.951 68.5315 236.828C66.522 233.705 62.3614 232.802 59.2385 234.812C56.1156 236.821 55.213 240.982 57.2225 244.105C59.232 247.228 63.3926 248.13 66.5155 246.121Z" fill="black"/>
<defs>
<filter id="filter0_d_1915_13065" x="61.1048" y="233.204" width="50.6928" height="47.06" filterUnits="userSpaceOnUse" color-interpolation-filters="sRGB">
<feFlood flood-opacity="0" result="BackgroundImageFix"/>
<feColorMatrix in="SourceAlpha" type="matrix" values="0 0 0 0 0 0 0 0 0 0 0 0 0 0 0 0 0 0 127 0" result="hardAlpha"/>
<feOffset dy="-2.14"/>
<feGaussianBlur stdDeviation="2.14"/>
<feColorMatrix type="matrix" values="0 0 0 0 0 0 0 0 0 0 0 0 0 0 0 0 0 0 0.36 0"/>
<feBlend mode="normal" in2="BackgroundImageFix" result="effect1_dropShadow_1915_13065"/>
<feBlend mode="normal" in="SourceGraphic" in2="effect1_dropShadow_1915_13065" result="shape"/>
</filter>
</defs>
</svg>
