<svg width="400" height="400" viewBox="0 0 400 400" fill="none" xmlns="http://www.w3.org/2000/svg">
<path d="M132.348 299.128C185.051 299.128 227.776 276.602 227.776 248.816C227.776 221.029 185.051 198.504 132.348 198.504C79.6445 198.504 36.9199 221.029 36.9199 248.816C36.9199 276.602 79.6445 299.128 132.348 299.128Z" fill="url(#paint0_radial_1915_12438)"/>
<path d="M331.708 274.968H69.8563C58.5831 274.968 49.4443 284.107 49.4443 295.38V309.464C49.4443 320.737 58.5831 329.876 69.8563 329.876H331.708C342.982 329.876 352.12 320.737 352.12 309.464V295.38C352.12 284.107 342.982 274.968 331.708 274.968Z" fill="#DD1829"/>
<path d="M119.264 282.136H103.252C99.136 282.136 95.792 285.284 95.792 289.156V315.888C95.792 319.76 99.14 322.908 103.252 322.908H119.264C123.376 322.908 126.724 319.76 126.724 315.888V289.156C126.724 285.284 123.376 282.136 119.264 282.136ZM126.2 315.888C126.2 319.484 123.088 322.412 119.264 322.412H103.252C99.428 322.412 96.316 319.484 96.316 315.888V289.156C96.316 285.56 99.428 282.632 103.252 282.632H119.264C123.088 282.632 126.2 285.56 126.2 289.156V315.888Z" fill="white"/>
<path d="M126.196 289.16V315.892C126.196 319.488 123.084 322.416 119.26 322.416H103.248C99.4235 322.416 96.3115 319.488 96.3115 315.892V289.16C96.3115 285.564 99.4235 282.636 103.248 282.636H119.26C123.084 282.636 126.196 285.564 126.196 289.16Z" fill="white"/>
<path d="M162.544 282.136H146.532C142.416 282.136 139.072 285.284 139.072 289.156V315.888C139.072 319.76 142.42 322.908 146.532 322.908H162.544C166.656 322.908 170.004 319.76 170.004 315.888V289.156C170.004 285.284 166.656 282.136 162.544 282.136ZM169.48 315.888C169.48 319.484 166.368 322.412 162.544 322.412H146.532C142.708 322.412 139.596 319.484 139.596 315.888V289.156C139.596 285.56 142.708 282.632 146.532 282.632H162.544C166.368 282.632 169.48 285.56 169.48 289.156V315.888Z" fill="white"/>
<path d="M169.481 289.16V315.892C169.481 319.488 166.369 322.416 162.545 322.416H146.533C142.709 322.416 139.597 319.488 139.597 315.892V289.16C139.597 285.564 142.709 282.636 146.533 282.636H162.545C166.369 282.636 169.481 285.564 169.481 289.16Z" fill="white"/>
<path d="M205.825 282.136H189.813C185.697 282.136 182.353 285.284 182.353 289.156V315.888C182.353 319.76 185.701 322.908 189.813 322.908H205.825C209.937 322.908 213.285 319.76 213.285 315.888V289.156C213.285 285.284 209.937 282.136 205.825 282.136ZM212.761 315.888C212.761 319.484 209.649 322.412 205.825 322.412H189.813C185.989 322.412 182.877 319.484 182.877 315.888V289.156C182.877 285.56 185.989 282.632 189.813 282.632H205.825C209.649 282.632 212.761 285.56 212.761 289.156V315.888Z" fill="white"/>
<path d="M212.761 289.16V315.892C212.761 319.488 209.649 322.416 205.825 322.416H189.813C185.989 322.416 182.877 319.488 182.877 315.892V289.16C182.877 285.564 185.989 282.636 189.813 282.636H205.825C209.649 282.636 212.761 285.564 212.761 289.16Z" fill="white"/>
<path d="M249.105 282.136H233.093C228.977 282.136 225.633 285.284 225.633 289.156V315.888C225.633 319.76 228.981 322.908 233.093 322.908H249.105C253.217 322.908 256.565 319.76 256.565 315.888V289.156C256.565 285.284 253.217 282.136 249.105 282.136ZM256.041 315.888C256.041 319.484 252.929 322.412 249.105 322.412H233.093C229.269 322.412 226.157 319.484 226.157 315.888V289.156C226.157 285.56 229.269 282.632 233.093 282.632H249.105C252.929 282.632 256.041 285.56 256.041 289.156V315.888Z" fill="white"/>
<path d="M256.041 289.16V315.892C256.041 319.488 252.929 322.416 249.105 322.416H233.093C229.269 322.416 226.157 319.488 226.157 315.892V289.16C226.157 285.564 229.269 282.636 233.093 282.636H249.105C252.929 282.636 256.041 285.564 256.041 289.16Z" fill="white"/>
<path d="M292.388 282.136H276.376C272.26 282.136 268.916 285.284 268.916 289.156V315.888C268.916 319.76 272.264 322.908 276.376 322.908H292.388C296.5 322.908 299.848 319.76 299.848 315.888V289.156C299.848 285.284 296.5 282.136 292.388 282.136ZM299.324 315.888C299.324 319.484 296.212 322.412 292.388 322.412H276.376C272.552 322.412 269.44 319.484 269.44 315.888V289.156C269.44 285.56 272.552 282.632 276.376 282.632H292.388C296.212 282.632 299.324 285.56 299.324 289.156V315.888Z" fill="white"/>
<path d="M299.32 289.16V315.892C299.32 319.488 296.208 322.416 292.384 322.416H276.372C272.548 322.416 269.436 319.488 269.436 315.892V289.16C269.436 285.564 272.548 282.636 276.372 282.636H292.384C296.208 282.636 299.32 285.564 299.32 289.16Z" fill="white"/>
<path d="M284.289 312.731C289.409 312.731 293.561 308.432 293.561 303.127C293.561 297.823 289.409 293.523 284.289 293.523C279.168 293.523 275.017 297.823 275.017 303.127C275.017 308.432 279.168 312.731 284.289 312.731Z" fill="black"/>
<path d="M296.869 303.832L296.733 303.808C296.633 303.788 296.565 303.7 296.565 303.596C296.565 303.508 296.565 303.42 296.565 303.328C296.565 303.144 296.565 302.96 296.553 302.776C296.549 302.668 296.621 302.576 296.721 302.56L296.865 302.532C296.977 302.512 297.049 302.4 297.029 302.284L296.549 299.436C296.529 299.32 296.425 299.244 296.313 299.264L296.133 299.296C296.037 299.316 295.937 299.256 295.905 299.156C295.821 298.9 295.733 298.652 295.637 298.404C295.597 298.304 295.637 298.192 295.725 298.14L295.889 298.04C295.985 297.98 296.021 297.852 295.965 297.748L294.585 295.244C294.529 295.144 294.405 295.108 294.309 295.168L294.113 295.287C294.025 295.339 293.917 295.32 293.853 295.236C293.697 295.032 293.533 294.832 293.365 294.636C293.297 294.556 293.297 294.44 293.361 294.356L293.513 294.168C293.585 294.08 293.573 293.944 293.489 293.868L291.377 292.008C291.293 291.932 291.165 291.944 291.093 292.036L290.925 292.244C290.861 292.324 290.749 292.343 290.665 292.287C290.453 292.151 290.241 292.024 290.021 291.904C289.933 291.856 289.893 291.744 289.925 291.644L290.013 291.384C290.053 291.272 289.997 291.152 289.893 291.112L287.301 290.124C287.197 290.084 287.081 290.14 287.041 290.252L286.945 290.524C286.909 290.624 286.813 290.68 286.717 290.66C286.477 290.608 286.237 290.564 285.993 290.528C285.893 290.512 285.821 290.424 285.821 290.316V290.024C285.821 289.908 285.729 289.812 285.617 289.812H282.861C282.749 289.812 282.657 289.908 282.657 290.024V290.316C282.657 290.42 282.585 290.512 282.485 290.528C282.241 290.564 282.001 290.608 281.761 290.66C281.661 290.68 281.565 290.624 281.533 290.524L281.437 290.252C281.397 290.14 281.281 290.084 281.177 290.124L278.585 291.112C278.481 291.152 278.425 291.276 278.465 291.384L278.553 291.644C278.589 291.744 278.549 291.856 278.457 291.904C278.237 292.024 278.025 292.155 277.813 292.287C277.729 292.343 277.617 292.324 277.553 292.244L277.385 292.036C277.313 291.948 277.185 291.936 277.101 292.008L274.989 293.868C274.905 293.944 274.893 294.076 274.965 294.168L275.117 294.356C275.181 294.436 275.181 294.556 275.113 294.636C274.945 294.832 274.781 295.028 274.625 295.236C274.561 295.316 274.453 295.339 274.365 295.287L274.169 295.168C274.073 295.108 273.949 295.144 273.893 295.244L272.513 297.748C272.457 297.848 272.489 297.98 272.589 298.04L272.753 298.14C272.841 298.192 272.877 298.304 272.841 298.404C272.745 298.652 272.653 298.9 272.573 299.156C272.541 299.256 272.445 299.312 272.345 299.296L272.165 299.264C272.053 299.244 271.949 299.32 271.929 299.436L271.449 302.284C271.429 302.4 271.505 302.508 271.613 302.532L271.757 302.56C271.857 302.58 271.929 302.672 271.925 302.776C271.917 302.96 271.913 303.144 271.913 303.328C271.913 303.416 271.913 303.504 271.913 303.596C271.913 303.7 271.845 303.792 271.745 303.808L271.609 303.832C271.497 303.852 271.425 303.964 271.445 304.08L271.925 306.928C271.945 307.044 272.049 307.12 272.161 307.1L272.253 307.084C272.353 307.064 272.449 307.128 272.481 307.228C272.561 307.496 272.649 307.76 272.745 308.02C272.781 308.116 272.745 308.228 272.657 308.28L272.581 308.324C272.485 308.384 272.449 308.512 272.505 308.616L273.885 311.12C273.941 311.22 274.065 311.256 274.161 311.196L274.209 311.168C274.297 311.116 274.409 311.136 274.469 311.22C274.633 311.444 274.809 311.664 274.985 311.876C275.049 311.956 275.053 312.072 274.985 312.152L274.953 312.192C274.881 312.28 274.893 312.416 274.977 312.492L277.089 314.352C277.173 314.428 277.301 314.416 277.373 314.324L277.385 314.308C277.449 314.228 277.561 314.208 277.649 314.264C277.881 314.415 278.117 314.564 278.361 314.7C278.449 314.748 278.489 314.86 278.453 314.96V314.976C278.409 315.088 278.465 315.208 278.569 315.248L281.161 316.236C281.265 316.276 281.381 316.22 281.421 316.108C281.457 316.008 281.553 315.948 281.653 315.972C281.921 316.032 282.197 316.084 282.469 316.124C282.569 316.14 282.641 316.228 282.641 316.336C282.641 316.452 282.733 316.548 282.845 316.548H285.601C285.713 316.548 285.805 316.452 285.805 316.336C285.805 316.232 285.877 316.14 285.977 316.124C286.253 316.084 286.525 316.032 286.793 315.972C286.893 315.952 286.989 316.008 287.025 316.108C287.065 316.22 287.181 316.276 287.285 316.236L289.877 315.248C289.981 315.208 290.037 315.084 289.997 314.976V314.96C289.957 314.86 289.997 314.752 290.085 314.7C290.329 314.564 290.565 314.415 290.797 314.264C290.881 314.208 290.993 314.228 291.061 314.308L291.073 314.324C291.145 314.412 291.273 314.424 291.357 314.352L293.469 312.492C293.553 312.416 293.565 312.284 293.493 312.192L293.461 312.152C293.397 312.072 293.397 311.956 293.461 311.876C293.641 311.664 293.813 311.444 293.977 311.22C294.037 311.136 294.149 311.112 294.237 311.168L294.285 311.196C294.381 311.256 294.505 311.22 294.561 311.12L295.941 308.616C295.997 308.516 295.965 308.384 295.865 308.324L295.789 308.28C295.701 308.228 295.665 308.116 295.701 308.02C295.797 307.76 295.885 307.496 295.965 307.228C295.997 307.128 296.093 307.064 296.193 307.084L296.285 307.1C296.397 307.12 296.501 307.044 296.521 306.928L297.001 304.08C297.021 303.964 296.945 303.856 296.837 303.832H296.869ZM284.289 311.776C279.733 311.776 276.045 307.904 276.045 303.128C276.045 298.352 279.737 294.48 284.289 294.48C288.841 294.48 292.533 298.352 292.533 303.128C292.533 307.904 288.841 311.776 284.289 311.776Z" fill="black"/>
<path d="M289.572 305.029L288.724 304.141L287.916 304.441H287.908L286.536 304.945L286.964 305.393L287.824 305.077L287.924 305.185L287.38 305.825L287.808 306.269L288.32 305.597L288.664 305.957L289.992 305.469M288.7 305.341L288.288 304.909L288.632 304.781L289.044 305.213L288.7 305.341Z" fill="white"/>
<path d="M291.892 308.669L290.568 309.153L289.284 307.813L289.796 307.625L290.656 308.517L291 308.393L290.14 307.497L291.468 307.009L292.756 308.353L292.236 308.541L291.376 307.645L291.032 307.773L291.892 308.669Z" fill="white"/>
<path d="M289.248 306.564L288.904 306.688L289.64 307.456C289.612 307.468 289.124 307.644 289.124 307.644L287.96 306.432L290.148 305.628L291.312 306.84L290.784 307.032L290.056 306.264L289.712 306.392L290.448 307.16C290.424 307.168 289.984 307.328 289.984 307.328L289.248 306.56V306.564Z" fill="white"/>
<path d="M286.312 301.612L285.796 301.804L286.404 302.436L284.736 303.048L285.164 303.492L286.828 302.88L287.092 303.164L287.624 303.712L285.392 304.532L286.384 304.768L288.572 303.968" fill="#BA1623"/>
<path d="M285.052 308.747L285.44 307.583L284.796 307.011L284.788 307.003L283.704 306.027L283.512 306.615L284.192 307.227L284.144 307.367L283.324 307.187L283.132 307.775L283.968 307.911L283.812 308.383L284.868 309.327M284.376 308.127L284.564 307.559L284.836 307.803L284.648 308.371L284.376 308.127Z" fill="white"/>
<path d="M282.928 312.504L281.88 311.568L282.46 309.8L282.868 310.168L282.48 311.344L282.752 311.588L283.14 310.412L284.196 311.352L283.616 313.12L283.2 312.752L283.592 311.568L283.316 311.324L282.928 312.504Z" fill="white"/>
<path d="M283.544 309.188L283.272 308.944L282.94 309.952C282.916 309.932 282.532 309.588 282.532 309.588L283.056 307.992L284.792 309.544L284.268 311.14L283.852 310.764L284.188 309.76L283.916 309.516L283.584 310.524L283.216 310.192L283.548 309.184L283.544 309.188Z" fill="white"/>
<path d="M286.54 304.268L286.128 303.9L285.852 304.736L284.532 303.552L284.34 304.136L285.66 305.32L285.536 305.684L285.3 306.412L283.532 304.828L283.788 305.816L285.52 307.368" fill="#BA1623"/>
<path d="M279.649 306.504L280.861 306.3L281.061 305.464V305.452L281.417 304.036L280.805 304.14L280.585 305.028L280.441 305.052L280.217 304.244L279.609 304.348L279.881 305.152L279.393 305.236L279.053 306.612M279.881 305.612L280.469 305.512L280.381 305.868L279.793 305.968L279.881 305.612Z" fill="white"/>
<path d="M275.332 306.396L275.668 305.028L277.5 304.712L277.368 305.244L276.148 305.452L276.06 305.808L277.284 305.6L276.944 306.972L275.112 307.288L275.244 306.752L276.468 306.54L276.556 306.184L275.332 306.396Z" fill="white"/>
<path d="M278.552 305.381L278.64 305.025L277.592 305.205C277.6 305.177 277.724 304.673 277.724 304.673L279.38 304.389L278.824 306.649L277.168 306.933L277.304 306.389L278.348 306.213L278.436 305.857L277.388 306.037C277.392 306.013 277.508 305.557 277.508 305.557L278.556 305.377L278.552 305.381Z" fill="white"/>
<path d="M284.3 305.716L284.432 305.18L283.564 305.328L283.992 303.604L283.384 303.708L282.96 305.432L282.58 305.496L281.828 305.628L282.396 303.32L281.644 304.008L281.088 306.272" fill="#BA1623"/>
<path d="M279.089 300.68L279.837 301.652L280.669 301.436H280.681L282.097 301.08L281.717 300.592L280.829 300.816L280.737 300.7L281.345 300.12L280.965 299.632L280.385 300.248L280.081 299.856L278.709 300.204M279.981 300.468L280.349 300.94L279.993 301.028L279.629 300.556L279.985 300.464L279.981 300.468Z" fill="white"/>
<path d="M277.165 296.816L278.529 296.472L279.665 297.944L279.137 298.076L278.377 297.096L278.021 297.188L278.781 298.164L277.409 298.512L276.269 297.044L276.809 296.908L277.569 297.892L277.925 297.8L277.165 296.816Z" fill="white"/>
<path d="M279.569 299.184L279.925 299.096L279.273 298.256C279.301 298.248 279.805 298.12 279.805 298.12L280.833 299.448L278.573 300.016L277.545 298.688L278.089 298.552L278.733 299.392L279.089 299.304L278.437 298.464C278.461 298.456 278.917 298.344 278.917 298.344L279.569 299.184Z" fill="white"/>
<path d="M281.973 304.419L282.509 304.279L281.969 303.587L283.689 303.151L283.313 302.667L281.593 303.103L281.361 302.795L280.889 302.191L283.193 301.611L282.233 301.271L279.973 301.839" fill="#BA1623"/>
<path d="M283.973 297.451L283.465 298.571L284.045 299.207L284.053 299.215L285.029 300.299L285.285 299.735L284.673 299.059L284.733 298.923L285.529 299.187L285.781 298.623L284.965 298.399L285.169 297.947L284.217 296.899M284.581 298.147L284.337 298.691L284.089 298.419L284.333 297.875L284.581 298.147Z" fill="white"/>
<path d="M286.477 293.94L287.421 294.98L286.661 296.676L286.293 296.272L286.801 295.14L286.557 294.868L286.049 296L285.097 294.952L285.861 293.256L286.233 293.664L285.721 294.8L285.969 295.072L286.477 293.94Z" fill="white"/>
<path d="M285.516 297.176L285.76 297.448L286.196 296.48C286.216 296.504 286.564 296.888 286.564 296.888L285.876 298.42L284.312 296.692L285 295.16L285.376 295.576L284.936 296.54L285.184 296.812L285.62 295.844L285.952 296.212L285.516 297.18V297.176Z" fill="white"/>
<path d="M282.024 301.751L282.396 302.159L282.756 301.359L283.948 302.675L284.2 302.115L283.008 300.799L283.172 300.447L283.48 299.751L285.076 301.511L284.924 300.503L283.36 298.775" fill="#BA1623"/>
<path d="M289.116 300.247L287.892 300.323L287.604 301.135V301.147L287.1 302.519L287.72 302.479L288.032 301.619L288.18 301.611L288.32 302.439L288.936 302.399L288.752 301.571L289.248 301.539L289.728 300.207M288.8 301.115L288.204 301.155L288.328 300.811L288.924 300.771L288.8 301.115Z" fill="white"/>
<path d="M293.392 300.807L292.916 302.135L291.06 302.255L291.248 301.739L292.484 301.659L292.608 301.315L291.372 301.395L291.848 300.063L293.704 299.943L293.516 300.463L292.276 300.547L292.152 300.891L293.392 300.807Z" fill="white"/>
<path d="M290.084 301.483L289.96 301.827L291.02 301.759C291.008 301.787 290.836 302.275 290.836 302.275L289.16 302.387L289.952 300.195L291.628 300.083L291.436 300.611L290.38 300.675L290.256 301.019L291.316 300.951C291.308 300.975 291.148 301.415 291.148 301.415L290.088 301.483H290.084Z" fill="white"/>
<path d="M284.4 300.547L284.216 301.067L285.092 301.007L284.492 302.679L285.104 302.635L285.704 300.967L286.092 300.947L286.852 300.891L286.048 303.127L286.868 302.519L287.656 300.331" fill="#BA1623"/>
<path d="M284.244 292.287C278.508 292.287 273.856 297.163 273.856 303.179C273.856 309.195 278.508 314.071 284.244 314.071C289.98 314.071 294.632 309.195 294.632 303.179C294.632 297.163 289.98 292.287 284.244 292.287ZM284.244 313.431C278.844 313.431 274.468 308.839 274.468 303.179C274.468 297.519 278.844 292.927 284.244 292.927C289.644 292.927 294.02 297.519 294.02 303.179C294.02 308.839 289.644 313.431 284.244 313.431Z" fill="white"/>
<path d="M115.964 303.399L121.1 306.279L118.792 310.283L113.608 307.107L113.7 313.015H109.268L109.316 307.059L104.132 310.283L101.868 306.279L107.004 303.399L101.868 300.471L104.132 296.467L109.316 299.691L109.268 293.735H113.7L113.608 299.691L118.792 296.467L121.1 300.471L115.964 303.399Z" fill="black"/>
<path d="M159.248 303.399L164.384 306.279L162.076 310.283L156.892 307.107L156.984 313.015H152.552L152.6 307.059L147.416 310.283L145.152 306.279L150.288 303.399L145.152 300.471L147.416 296.467L152.6 299.691L152.552 293.735H156.984L156.892 299.691L162.076 296.467L164.384 300.471L159.248 303.399Z" fill="black"/>
<path d="M202.529 303.399L207.665 306.279L205.357 310.283L200.173 307.107L200.265 313.015H195.833L195.881 307.059L190.697 310.283L188.433 306.279L193.569 303.399L188.433 300.471L190.697 296.467L195.881 299.691L195.833 293.735H200.265L200.173 299.691L205.357 296.467L207.665 300.471L202.529 303.399Z" fill="black"/>
<path d="M245.808 303.399L250.944 306.279L248.636 310.283L243.452 307.107L243.544 313.015H239.112L239.16 307.059L233.976 310.283L231.712 306.279L236.848 303.399L231.712 300.471L233.976 296.467L239.16 299.691L239.112 293.735H243.544L243.452 299.691L248.636 296.467L250.944 300.471L245.808 303.399Z" fill="black"/>
<path d="M128.021 227.532C156.468 227.532 179.529 203.649 179.529 174.188C179.529 144.727 156.468 120.844 128.021 120.844C99.5736 120.844 76.5127 144.727 76.5127 174.188C76.5127 203.649 99.5736 227.532 128.021 227.532Z" fill="black"/>
<path d="M197.912 178.096L197.16 177.956C196.616 177.856 196.22 177.352 196.232 176.772C196.24 176.28 196.248 175.788 196.248 175.292C196.248 174.264 196.228 173.24 196.184 172.224C196.16 171.632 196.556 171.116 197.112 171.016L197.912 170.868C198.524 170.756 198.932 170.144 198.824 169.5L196.164 153.684C196.056 153.044 195.472 152.612 194.86 152.728L193.86 152.912C193.316 153.012 192.78 152.684 192.6 152.136C192.14 150.724 191.64 149.332 191.1 147.96C190.884 147.416 191.092 146.788 191.58 146.492L192.5 145.936C193.04 145.612 193.224 144.888 192.912 144.324L185.256 130.416C184.944 129.852 184.256 129.66 183.72 129.984L182.62 130.648C182.14 130.936 181.532 130.82 181.184 130.368C180.312 129.232 179.408 128.12 178.476 127.044C178.1 126.608 178.088 125.948 178.452 125.496L179.292 124.444C179.692 123.944 179.628 123.2 179.152 122.78L167.42 112.456C166.944 112.036 166.232 112.104 165.836 112.6L164.908 113.76C164.552 114.204 163.936 114.316 163.464 114.012C162.296 113.264 161.104 112.548 159.892 111.872C159.4 111.596 159.176 110.98 159.368 110.428L159.868 108.988C160.08 108.376 159.78 107.7 159.196 107.476L144.804 101.984C144.22 101.76 143.576 102.076 143.36 102.688L142.836 104.204C142.648 104.752 142.104 105.072 141.56 104.956C140.232 104.672 138.892 104.428 137.536 104.224C136.984 104.14 136.576 103.644 136.576 103.056V101.432C136.576 100.78 136.072 100.252 135.452 100.252H120.136C119.516 100.252 119.012 100.78 119.012 101.432V103.056C119.012 103.64 118.604 104.14 118.052 104.224C116.696 104.428 115.356 104.672 114.028 104.956C113.484 105.072 112.94 104.752 112.752 104.204L112.228 102.688C112.016 102.076 111.368 101.76 110.784 101.984L96.3924 107.476C95.8084 107.7 95.5084 108.376 95.7204 108.988L96.2204 110.428C96.4124 110.98 96.1884 111.596 95.6964 111.872C94.4844 112.548 93.2924 113.264 92.1244 114.012C91.6524 114.316 91.0364 114.208 90.6804 113.76L89.7524 112.6C89.3524 112.1 88.6444 112.036 88.1684 112.456L76.4364 122.78C75.9604 123.2 75.8964 123.944 76.2964 124.444L77.1364 125.496C77.4964 125.948 77.4884 126.608 77.1124 127.044C76.1764 128.124 75.2724 129.232 74.4044 130.368C74.0564 130.82 73.4484 130.936 72.9684 130.648L71.8684 129.984C71.3284 129.66 70.6404 129.852 70.3324 130.416L62.6764 144.324C62.3644 144.888 62.5484 145.612 63.0884 145.936L64.0084 146.492C64.4964 146.788 64.7004 147.412 64.4884 147.96C63.9484 149.332 63.4484 150.724 62.9884 152.136C62.8084 152.684 62.2724 153.012 61.7284 152.912L60.7284 152.728C60.1164 152.616 59.5324 153.044 59.4244 153.684L56.7644 169.5C56.6564 170.14 57.0644 170.756 57.6764 170.868L58.4764 171.016C59.0324 171.12 59.4284 171.636 59.4044 172.224C59.3644 173.24 59.3404 174.264 59.3404 175.292C59.3404 175.788 59.3444 176.28 59.3564 176.772C59.3684 177.352 58.9724 177.856 58.4284 177.956L57.6764 178.096C57.0644 178.208 56.6564 178.82 56.7644 179.464L59.4244 195.28C59.5324 195.92 60.1164 196.352 60.7284 196.236L61.2444 196.14C61.7964 196.036 62.3404 196.38 62.5124 196.94C62.9604 198.424 63.4524 199.892 63.9884 201.332C64.1884 201.872 63.9804 202.484 63.5004 202.776L63.0844 203.028C62.5444 203.352 62.3604 204.076 62.6724 204.64L70.3284 218.548C70.6404 219.112 71.3284 219.304 71.8644 218.98L72.1244 218.824C72.6084 218.528 73.2324 218.652 73.5724 219.12C74.4924 220.372 75.4524 221.588 76.4484 222.772C76.8164 223.208 76.8204 223.86 76.4604 224.304L76.2924 224.516C75.8924 225.016 75.9564 225.76 76.4324 226.18L88.1644 236.504C88.6404 236.924 89.3524 236.856 89.7484 236.36L89.8204 236.268C90.1804 235.816 90.8044 235.712 91.2764 236.024C92.5644 236.88 93.8844 237.688 95.2284 238.452C95.7164 238.728 95.9324 239.344 95.7444 239.888L95.7164 239.968C95.5044 240.58 95.8044 241.256 96.3884 241.48L110.78 246.972C111.364 247.196 112.008 246.88 112.224 246.268C112.416 245.712 112.964 245.388 113.508 245.512C115.004 245.844 116.52 246.128 118.052 246.356C118.604 246.44 119.012 246.94 119.012 247.524C119.012 248.176 119.516 248.704 120.136 248.704H135.452C136.072 248.704 136.576 248.176 136.576 247.524C136.576 246.94 136.984 246.44 137.536 246.356C139.068 246.128 140.58 245.844 142.08 245.512C142.628 245.392 143.172 245.712 143.364 246.264C143.576 246.88 144.224 247.196 144.808 246.972L159.2 241.48C159.784 241.256 160.084 240.58 159.872 239.968L159.844 239.888C159.656 239.34 159.872 238.728 160.36 238.452C161.704 237.688 163.024 236.876 164.312 236.024C164.784 235.708 165.408 235.816 165.768 236.268L165.84 236.36C166.24 236.86 166.948 236.924 167.424 236.504L179.156 226.18C179.632 225.76 179.696 225.016 179.296 224.516L179.128 224.304C178.772 223.86 178.776 223.204 179.14 222.772C180.136 221.588 181.096 220.368 182.016 219.12C182.36 218.656 182.98 218.532 183.464 218.824L183.724 218.98C184.264 219.304 184.952 219.112 185.26 218.548L192.916 204.64C193.228 204.076 193.044 203.352 192.504 203.028L192.088 202.776C191.608 202.484 191.4 201.872 191.6 201.332C192.136 199.888 192.628 198.424 193.076 196.94C193.244 196.376 193.788 196.036 194.344 196.14L194.86 196.236C195.472 196.348 196.056 195.92 196.164 195.28L198.824 179.464C198.932 178.824 198.524 178.208 197.912 178.096ZM128.02 222.22C102.72 222.22 82.2124 200.716 82.2124 174.188C82.2124 147.66 102.72 126.156 128.02 126.156C153.32 126.156 173.828 147.66 173.828 174.188C173.828 200.716 153.32 222.22 128.02 222.22Z" fill="black"/>
<path d="M157.364 184.751L152.66 179.815L148.18 181.487L148.124 181.511L140.508 184.275L142.892 186.763L147.66 185.019L148.224 185.611L145.196 189.167L147.568 191.643L150.42 187.903L152.328 189.895L159.712 187.183M152.532 186.471L150.236 184.075L152.148 183.371L154.44 185.763L152.528 186.467L152.532 186.471Z" fill="white"/>
<path d="M170.251 204.959L162.911 207.655L155.771 200.203L158.627 199.155L163.387 204.123L165.295 203.423L160.531 198.451L167.911 195.735L175.059 203.195L172.167 204.259L167.387 199.271L165.475 199.975L170.251 204.959Z" fill="white"/>
<path d="M155.579 193.284L153.671 193.984L157.755 198.248C157.595 198.304 154.899 199.296 154.899 199.296L148.443 192.556L160.591 188.096L167.047 194.836L164.123 195.904L160.071 191.636L158.159 192.34L162.243 196.604C162.115 196.652 159.663 197.548 159.663 197.548L155.583 193.288L155.579 193.284Z" fill="white"/>
<path d="M139.268 165.764L136.396 166.828L139.772 170.352L130.516 173.748L132.872 176.212L142.128 172.812L143.596 174.38L146.552 177.428L134.16 181.984L139.668 183.304L151.816 178.844" fill="#BA1623"/>
<path d="M132.26 205.412L134.408 198.94L130.828 195.768L130.78 195.732L124.764 190.308L123.688 193.58L127.468 196.968L127.212 197.744L122.652 196.74L121.58 199.996L126.22 200.76L125.356 203.38L131.216 208.628M128.476 201.956L129.516 198.804L131.036 200.164L130 203.312L128.48 201.956H128.476Z" fill="white"/>
<path d="M120.468 226.28L114.64 221.064L117.868 211.26L120.136 213.288L117.984 219.824L119.496 221.18L121.648 214.644L127.512 219.88L124.28 229.696L121.984 227.64L124.144 221.08L122.628 219.724L120.468 226.28Z" fill="white"/>
<path d="M123.888 207.84L122.376 206.484L120.528 212.092C120.404 211.98 118.26 210.064 118.26 210.064L121.18 201.2L130.82 209.832L127.9 218.696L125.588 216.616L127.452 211.032L125.932 209.672L124.084 215.28C123.98 215.188 122.04 213.444 122.04 213.444L123.884 207.84H123.888Z" fill="white"/>
<path d="M140.528 180.516L138.24 178.484L136.716 183.116L129.368 176.54L128.304 179.78L135.648 186.356L134.952 188.388L133.648 192.428L123.808 183.624L125.232 189.108L134.872 197.74" fill="#BA1623"/>
<path d="M102.232 192.948L108.956 191.808L110.076 187.16L110.088 187.1L112.052 179.24L108.656 179.828L107.436 184.756L106.632 184.896L105.38 180.396L102 180.976L103.504 185.432L100.788 185.9L98.9082 193.536M103.512 187.984L106.784 187.42L106.296 189.4L103.028 189.964L103.512 187.984Z" fill="white"/>
<path d="M78.2679 192.327L80.1399 184.735L90.3119 182.983L89.5839 185.939L82.8039 187.107L82.3159 189.079L89.0999 187.911L87.2279 195.547L77.0439 197.299L77.7799 194.307L84.5839 193.135L85.0719 191.159L78.2679 192.327Z" fill="white"/>
<path d="M96.1561 186.695L96.6441 184.723L90.8241 185.728C90.8641 185.564 91.5521 182.771 91.5521 182.771L100.748 181.188L97.6521 193.752L88.4561 195.335L89.2081 192.316L95.0121 191.34L95.5001 189.359L89.6841 190.359C89.7161 190.227 90.3441 187.692 90.3441 187.692L96.1601 186.692L96.1561 186.695Z" fill="white"/>
<path d="M128.096 188.56L128.816 185.584L124.008 186.412L126.364 176.84L123.008 177.416L120.648 186.992L118.528 187.332L114.348 188.076L117.5 175.256L113.328 179.084L110.232 191.648" fill="#BA1623"/>
<path d="M99.1396 160.58L103.304 165.98L107.936 164.784L107.992 164.764L115.856 162.808L113.744 160.088L108.82 161.324L108.32 160.676L111.704 157.456L109.604 154.744L106.376 158.164L104.688 155.984L97.0596 157.908M104.124 159.368L106.156 161.992L104.18 162.492L102.148 159.872L104.12 159.368H104.124Z" fill="white"/>
<path d="M88.4357 139.132L96.0197 137.22L102.34 145.38L99.3917 146.124L95.1757 140.684L93.2037 141.18L97.4197 146.62L89.7997 148.552L83.4717 140.384L86.4597 139.632L90.6877 145.088L92.6637 144.592L88.4357 139.132Z" fill="white"/>
<path d="M101.807 152.28L103.775 151.784L100.159 147.116C100.323 147.076 103.111 146.372 103.111 146.372L108.827 153.748L96.2795 156.912L90.5635 149.536L93.5835 148.78L97.1675 153.448L99.1435 152.948L95.5275 148.28C95.6595 148.248 98.1915 147.612 98.1915 147.612L101.807 152.276V152.28Z" fill="white"/>
<path d="M115.156 181.356L118.124 180.596L115.132 176.74L124.692 174.328L122.604 171.632L113.044 174.044L111.748 172.332L109.128 168.992L121.932 165.756L116.588 163.868L104.04 167.036" fill="#BA1623"/>
<path d="M126.268 142.655L123.456 148.867L126.684 152.395L126.728 152.435L132.144 158.459L133.556 155.315L130.152 151.551L130.488 150.807L134.92 152.283L136.328 149.155L131.792 147.911L132.924 145.395L127.644 139.563M129.672 146.487L128.308 149.515L126.94 148.003L128.3 144.979L129.672 146.487Z" fill="white"/>
<path d="M140.176 123.136L145.428 128.932L141.192 138.344L139.148 136.088L141.972 129.812L140.608 128.308L137.784 134.584L132.5 128.764L136.74 119.34L138.812 121.624L135.976 127.92L137.344 129.432L140.176 123.136Z" fill="white"/>
<path d="M134.848 141.116L136.212 142.624L138.636 137.24C138.748 137.364 140.68 139.496 140.68 139.496L136.852 148.008L128.168 138.416L131.996 129.904L134.08 132.216L131.644 137.572L133.012 139.084L135.436 133.7C135.528 133.804 137.28 135.74 137.28 135.74L134.86 141.12L134.848 141.116Z" fill="white"/>
<path d="M115.44 166.548L117.504 168.812L119.508 164.364L126.124 171.672L127.524 168.564L120.904 161.256L121.812 159.304L123.528 155.424L132.396 165.208L131.556 159.604L122.868 150.012" fill="#BA1623"/>
<path d="M154.828 158.192L148.024 158.624L146.424 163.132L146.408 163.188L143.632 170.8L147.068 170.572L148.796 165.8L149.612 165.748L150.388 170.352L153.812 170.128L152.78 165.54L155.532 165.36L158.2 157.96M153.04 163L149.728 163.22L150.42 161.304L153.728 161.084L153.04 163Z" fill="white"/>
<path d="M178.596 161.308L175.94 168.668L165.64 169.344L166.672 166.484L173.54 166.028L174.232 164.12L167.364 164.572L170.024 157.172L180.332 156.492L179.288 159.392L172.396 159.848L171.704 161.764L178.596 161.308Z" fill="white"/>
<path d="M160.216 165.044L159.524 166.956L165.416 166.568C165.36 166.728 164.384 169.432 164.384 169.432L155.072 170.048L159.464 157.876L168.776 157.26L167.716 160.184L161.84 160.548L161.148 162.464L167.04 162.076C166.992 162.204 166.104 164.66 166.104 164.66L160.216 165.048V165.044Z" fill="white"/>
<path d="M128.648 159.853L127.62 162.737L132.488 162.417L129.144 171.689L132.544 171.465L135.888 162.189L138.036 162.073L142.268 161.769L137.792 174.193L142.344 170.817L146.736 158.645" fill="#BA1623"/>
<path d="M127.784 113.972C95.9161 113.972 70.0801 141.064 70.0801 174.48C70.0801 207.896 95.9161 234.988 127.784 234.988C159.652 234.988 185.488 207.896 185.488 174.48C185.488 141.064 159.652 113.972 127.784 113.972ZM127.784 231.44C97.7841 231.44 73.4681 205.94 73.4681 174.484C73.4681 143.028 97.7881 117.528 127.784 117.528C157.78 117.528 182.1 143.028 182.1 174.484C182.1 205.94 157.78 231.44 127.784 231.44Z" fill="white"/>
<path opacity="0.83" d="M259.788 292.176C330.532 292.176 387.88 272.763 387.88 248.816C387.88 224.869 330.532 205.456 259.788 205.456C189.045 205.456 131.696 224.869 131.696 248.816C131.696 272.763 189.045 292.176 259.788 292.176Z" fill="url(#paint1_radial_1915_12438)"/>
<path d="M313.177 124.168L302.697 124.372L303.133 110.12C303.941 83.688 284.905 62.712 260.977 63.532C237.309 64.344 217.869 86.196 217.389 112.084L217.129 126.04L207.085 126.236C199.309 126.388 192.829 133.608 192.697 142.236L191.349 230.84C191.221 239.364 197.377 246.316 205.017 246.388L309.233 247.396C317.429 247.476 324.333 240.424 324.633 231.628L327.753 140.116C328.057 131.2 321.521 124 313.173 124.164L313.177 124.168ZM236.449 111.648C236.753 97.416 247.477 85.488 260.445 85.112C273.485 84.732 283.829 96.18 283.429 110.572L283.037 124.756L236.153 125.672L236.449 111.648ZM264.801 203.12L264.217 225.968C264.193 226.932 263.421 227.632 262.521 227.628L252.489 227.576C251.725 227.576 250.981 226.868 251.005 225.908L251.541 203.132C244.757 200.24 239.985 193.036 240.173 184.428C240.417 173.332 248.885 164.18 259.121 164.076C269.401 163.972 277.537 173.032 277.233 184.232C276.997 192.916 271.793 200.2 264.793 203.124L264.801 203.12Z" fill="#DD1829"/>
<path d="M302.373 124.001C302.373 124.289 282.889 124.973 259.105 125.517C235.585 126.057 216.713 126.261 216.709 125.977C216.709 125.693 235.573 125.025 259.101 124.481C282.885 123.929 302.373 123.709 302.373 124.001Z" fill="#1A2E35"/>
<path d="M321.577 134.808C321.577 134.808 321.605 135.004 321.613 135.38C321.613 135.816 321.617 136.372 321.621 137.06C321.601 138.612 321.577 140.772 321.545 143.516C321.433 149.192 321.277 157.256 321.081 167.16C320.849 177.12 320.577 188.908 320.273 201.944C320.089 208.46 320.001 215.256 319.709 222.344C319.485 225.872 319.029 229.556 317.469 232.96C316.693 234.644 315.613 236.228 314.229 237.5C312.837 238.76 311.181 239.7 309.433 240.316C305.917 241.536 302.273 241.64 298.789 241.652C295.313 241.628 291.889 241.604 288.533 241.58C281.837 241.524 275.401 241.472 269.281 241.424C257.121 241.304 246.221 241.196 237.085 241.108C228.065 240.984 220.769 240.88 215.657 240.812C213.197 240.756 211.261 240.712 209.869 240.68C209.253 240.656 208.757 240.636 208.365 240.62C208.025 240.6 207.853 240.584 207.853 240.564C207.853 240.548 208.025 240.532 208.365 240.516C208.757 240.504 209.253 240.492 209.865 240.476C211.257 240.464 213.193 240.444 215.653 240.42C220.765 240.416 228.061 240.408 237.081 240.4C246.217 240.428 257.113 240.46 269.277 240.496C275.393 240.524 281.833 240.556 288.529 240.588C291.885 240.604 295.305 240.624 298.781 240.64C302.237 240.628 305.789 240.504 309.109 239.352C310.757 238.772 312.289 237.896 313.573 236.74C314.845 235.564 315.845 234.108 316.577 232.52C318.049 229.328 318.513 225.752 318.737 222.28C319.037 215.268 319.145 208.42 319.353 201.924C319.733 188.892 320.081 177.108 320.369 167.148C320.697 157.244 320.961 149.184 321.149 143.512C321.261 140.772 321.349 138.612 321.413 137.056C321.449 136.364 321.481 135.812 321.505 135.376C321.533 134.996 321.553 134.804 321.573 134.804L321.577 134.808Z" fill="#1A2E35"/>
<path d="M279.98 90.4997C279.904 90.5677 279.204 89.6517 277.704 88.2757C276.188 86.9357 273.808 85.1597 270.48 83.8597C267.184 82.5517 262.94 81.6797 258.264 82.1597C253.624 82.6237 248.576 84.5597 244.268 88.0837C239.924 91.5597 236.972 96.3077 235.436 101.004C233.86 105.7 233.416 110.22 233.184 113.968C232.98 117.728 233.032 120.784 233.032 122.896C233.04 125.008 233.032 126.176 232.964 126.18C232.9 126.18 232.78 125.024 232.656 122.916C232.54 120.808 232.388 117.748 232.504 113.948C232.652 110.156 233.024 105.556 234.596 100.7C236.128 95.8477 239.192 90.8597 243.692 87.2597C248.16 83.6037 253.4 81.6277 258.208 81.1997C263.052 80.7557 267.4 81.7357 270.748 83.1637C274.128 84.5877 276.504 86.5077 277.968 87.9637C278.68 88.7237 279.216 89.3277 279.528 89.7877C279.856 90.2317 280.012 90.4757 279.984 90.4997H279.98Z" fill="#1A2E35"/>
<path d="M256.025 164.58C256.025 164.552 256.377 164.504 257.069 164.436C257.757 164.36 258.785 164.32 260.121 164.4C261.457 164.444 263.097 164.72 264.953 165.276C266.801 165.848 268.877 166.832 270.793 168.516C274.725 171.844 277.225 178.228 277.073 185.4C276.945 189 275.749 192.784 273.529 196.04C271.253 199.252 268.161 201.984 264.409 203.844L264.689 203.4C264.733 210.952 264.785 219.152 264.841 227.668V228.184L264.349 228.172C262.937 228.136 261.421 228.096 259.893 228.056C256.617 227.968 253.393 227.884 250.233 227.8L249.757 227.788L249.769 227.288C249.945 218.856 249.745 210.756 250.157 203.216L250.429 203.668C246.961 202.084 244.297 199.312 242.445 196.312C240.589 193.288 239.497 189.984 239.081 186.784C238.693 183.58 239.005 180.448 240.001 177.82C240.953 175.176 242.341 172.976 243.833 171.236C246.833 167.716 250.125 166.016 252.397 165.26C254.709 164.516 256.025 164.584 256.025 164.584C256.041 164.684 254.729 164.724 252.489 165.548C250.285 166.38 247.105 168.128 244.233 171.616C241.405 174.996 238.865 180.408 239.809 186.68C240.237 189.76 241.317 192.944 243.125 195.844C244.925 198.72 247.497 201.344 250.769 202.816L251.057 202.944L251.041 203.268C250.669 210.768 250.889 218.848 250.725 227.32L250.257 226.808C253.417 226.888 256.645 226.972 259.921 227.056C261.445 227.096 262.961 227.136 264.377 227.172L263.885 227.676C263.849 219.164 263.817 210.964 263.785 203.412V203.108L264.065 202.972C267.609 201.236 270.665 198.576 272.845 195.524C274.989 192.416 276.149 188.832 276.301 185.376C276.501 178.436 274.157 172.228 270.429 168.984C268.609 167.332 266.617 166.332 264.821 165.728C263.017 165.14 261.413 164.82 260.097 164.728C257.469 164.5 256.029 164.684 256.025 164.592V164.58Z" fill="#1A2E35"/>
<defs>
<radialGradient id="paint0_radial_1915_12438" cx="0" cy="0" r="1" gradientUnits="userSpaceOnUse" gradientTransform="translate(132.348 251.263) scale(95.428 8.58852)">
<stop/>
<stop offset="1" stop-color="white" stop-opacity="0"/>
</radialGradient>
<radialGradient id="paint1_radial_1915_12438" cx="0" cy="0" r="1" gradientUnits="userSpaceOnUse" gradientTransform="translate(262.179 253.982) scale(0.268 0.016)">
<stop/>
<stop offset="1" stop-color="white" stop-opacity="0"/>
</radialGradient>
</defs>
</svg>
