<svg width="308" height="223" viewBox="0 0 308 223" fill="none" xmlns="http://www.w3.org/2000/svg">
<path d="M101.588 0.956055L139.308 29.9041H101.588V0.956055Z" fill="#DD1829"/>
<path d="M101.588 0.956055L63.8643 29.9041H101.588V0.956055Z" fill="#DD1829"/>
<path d="M139.308 29.9043H186.68V94.8203L101.588 161.9V29.9043H139.308Z" fill="#EBEBEB"/>
<path d="M63.8637 29.9043H16.4957L16.0557 94.8203L101.588 161.9V29.9043H63.8637Z" fill="#EBEBEB"/>
<path d="M202.032 82.54V220.056H101.588V161.9L202.032 82.54Z" fill="#DD1829"/>
<path d="M1.14453 82.748V220.268H101.589V162.108L1.14453 82.748Z" fill="#DD1829"/>
<path d="M202.032 82.5404L186.68 71.4844V94.6684L202.032 82.5404Z" fill="#60000C"/>
<path d="M0.704102 82.5404L16.0561 71.4844V94.6684L0.704102 82.5404Z" fill="#60000C"/>
<path d="M89.0318 115.72L70.0598 96.7476C69.0998 95.7876 69.0998 94.2356 70.0598 93.2756L75.8078 87.5276C76.7678 86.5676 78.3198 86.5676 79.2799 87.5276L89.8398 98.0916C90.3518 98.6036 91.1798 98.6036 91.6918 98.0916L123.88 65.9036C124.84 64.9436 126.392 64.9436 127.352 65.9036L133.1 71.6516C134.06 72.6116 134.06 74.1636 133.1 75.1236L92.4998 115.72C91.5398 116.68 89.9878 116.68 89.0278 115.72H89.0318Z" fill="#DD1829"/>
<path d="M266.221 180.715C289.13 157.805 289.13 120.661 266.221 97.7517C243.311 74.842 206.167 74.842 183.257 97.7517C160.347 120.661 160.347 157.805 183.257 180.715C206.167 203.625 243.311 203.625 266.221 180.715Z" fill="black"/>
<path d="M304.34 143.533L303.484 143.381C302.864 143.269 302.412 142.717 302.424 142.081C302.436 141.541 302.44 140.997 302.44 140.453C302.44 139.321 302.416 138.197 302.368 137.077C302.34 136.429 302.792 135.861 303.424 135.749L304.336 135.585C305.032 135.461 305.5 134.789 305.376 134.081L302.348 116.689C302.224 115.985 301.56 115.513 300.864 115.637L299.728 115.841C299.108 115.953 298.496 115.593 298.296 114.989C297.772 113.437 297.204 111.905 296.588 110.393C296.344 109.793 296.58 109.105 297.136 108.781L298.184 108.169C298.796 107.809 299.008 107.017 298.652 106.397L289.932 91.1005C289.576 90.4805 288.796 90.2685 288.18 90.6245L286.928 91.3565C286.384 91.6765 285.688 91.5485 285.292 91.0485C284.3 89.7965 283.272 88.5765 282.208 87.3925C281.78 86.9125 281.768 86.1845 282.18 85.6925L283.136 84.5365C283.592 83.9885 283.52 83.1685 282.976 82.7085L269.612 71.3565C269.068 70.8965 268.26 70.9685 267.808 71.5165L266.752 72.7885C266.344 73.2805 265.644 73.3965 265.108 73.0645C263.776 72.2405 262.42 71.4565 261.04 70.7125C260.48 70.4085 260.224 69.7325 260.444 69.1245L261.012 67.5405C261.256 66.8685 260.912 66.1205 260.244 65.8765L243.852 59.8365C243.188 59.5925 242.452 59.9405 242.208 60.6125L241.608 62.2805C241.392 62.8845 240.772 63.2365 240.152 63.1085C238.64 62.7965 237.112 62.5285 235.572 62.3045C234.944 62.2125 234.476 61.6645 234.476 61.0205V59.2325C234.476 58.5165 233.904 57.9365 233.196 57.9365H215.752C215.044 57.9365 214.472 58.5165 214.472 59.2325V61.0205C214.472 61.6645 214.008 62.2125 213.376 62.3045C211.832 62.5285 210.308 62.7965 208.796 63.1085C208.176 63.2365 207.556 62.8805 207.34 62.2805L206.74 60.6125C206.496 59.9405 205.764 59.5925 205.096 59.8365L188.704 65.8765C188.04 66.1205 187.696 66.8645 187.936 67.5405L188.504 69.1245C188.72 69.7285 188.468 70.4085 187.908 70.7125C186.528 71.4565 185.168 72.2405 183.84 73.0645C183.3 73.4005 182.6 73.2805 182.196 72.7885L181.14 71.5165C180.684 70.9685 179.876 70.8965 179.336 71.3565L165.972 82.7085C165.428 83.1685 165.36 83.9885 165.816 84.5365L166.772 85.6925C167.184 86.1885 167.172 86.9165 166.744 87.3925C165.68 88.5805 164.652 89.8005 163.66 91.0485C163.264 91.5445 162.568 91.6725 162.024 91.3565L160.772 90.6245C160.16 90.2645 159.376 90.4805 159.02 91.1005L150.3 106.397C149.948 107.017 150.156 107.813 150.768 108.169L151.816 108.781C152.372 109.105 152.604 109.793 152.36 110.393C151.744 111.901 151.176 113.433 150.652 114.989C150.448 115.593 149.84 115.953 149.22 115.841L148.084 115.637C147.388 115.513 146.724 115.985 146.6 116.689L143.572 134.081C143.448 134.785 143.916 135.461 144.612 135.585L145.524 135.749C146.156 135.861 146.608 136.429 146.58 137.077C146.532 138.197 146.508 139.321 146.508 140.453C146.508 140.997 146.512 141.537 146.524 142.081C146.536 142.721 146.088 143.273 145.464 143.381L144.608 143.533C143.912 143.657 143.444 144.329 143.568 145.037L146.596 162.429C146.72 163.133 147.384 163.605 148.08 163.481L148.668 163.377C149.3 163.265 149.916 163.641 150.112 164.257C150.62 165.889 151.184 167.501 151.792 169.089C152.02 169.685 151.78 170.357 151.236 170.677L150.764 170.953C150.152 171.313 149.94 172.105 150.296 172.725L159.016 188.021C159.372 188.641 160.152 188.853 160.768 188.497L161.064 188.325C161.616 188.001 162.324 188.137 162.716 188.649C163.764 190.025 164.856 191.365 165.992 192.665C166.408 193.145 166.412 193.861 166.008 194.353L165.816 194.585C165.36 195.133 165.432 195.953 165.972 196.413L179.336 207.765C179.88 208.225 180.688 208.153 181.14 207.605L181.224 207.505C181.636 207.009 182.344 206.893 182.884 207.237C184.352 208.177 185.852 209.069 187.384 209.909C187.94 210.213 188.188 210.889 187.972 211.489L187.94 211.577C187.696 212.249 188.04 212.997 188.708 213.241L205.1 219.281C205.764 219.525 206.5 219.177 206.744 218.505C206.96 217.897 207.584 217.541 208.208 217.673C209.912 218.041 211.636 218.349 213.38 218.601C214.008 218.693 214.472 219.241 214.472 219.885C214.472 220.601 215.044 221.181 215.752 221.181H233.196C233.904 221.181 234.476 220.601 234.476 219.885C234.476 219.241 234.94 218.693 235.568 218.601C237.312 218.349 239.036 218.041 240.74 217.673C241.36 217.541 241.984 217.893 242.204 218.501C242.448 219.181 243.18 219.525 243.848 219.281L260.24 213.241C260.904 212.997 261.248 212.253 261.008 211.577L260.976 211.489C260.76 210.889 261.008 210.213 261.564 209.909C263.096 209.069 264.596 208.177 266.064 207.237C266.604 206.893 267.312 207.009 267.724 207.505L267.808 207.605C268.264 208.153 269.072 208.225 269.612 207.765L282.976 196.413C283.52 195.953 283.588 195.133 283.136 194.585L282.944 194.353C282.54 193.865 282.544 193.145 282.96 192.665C284.096 191.365 285.188 190.025 286.236 188.649C286.628 188.137 287.332 188.001 287.888 188.325L288.184 188.497C288.796 188.857 289.58 188.641 289.936 188.021L298.656 172.725C299.008 172.105 298.8 171.309 298.188 170.953L297.716 170.677C297.172 170.357 296.932 169.685 297.16 169.089C297.768 167.505 298.332 165.893 298.84 164.257C299.032 163.637 299.652 163.265 300.284 163.377L300.872 163.481C301.568 163.605 302.232 163.133 302.356 162.429L305.384 145.037C305.508 144.333 305.04 143.657 304.344 143.533H304.34ZM224.74 192.057C195.928 192.057 172.568 168.409 172.568 139.233C172.568 110.057 195.924 86.4085 224.74 86.4085C253.556 86.4085 276.912 110.057 276.912 139.233C276.912 168.409 253.556 192.057 224.74 192.057Z" fill="black"/>
<path d="M257.678 151.669L252.33 146.037L247.362 147.829L247.302 147.853L238.858 150.809L241.566 153.645L246.85 151.777L247.494 152.449L244.182 156.381L246.878 159.209L249.99 155.065L252.158 157.337L260.346 154.437M252.322 153.497L249.714 150.761L251.834 150.009L254.438 152.741L252.322 153.497Z" fill="white"/>
<path d="M272.451 174.609L264.311 177.493L256.199 168.989L259.367 167.865L264.775 173.537L266.891 172.789L261.479 167.117L269.659 164.209L277.783 172.721L274.575 173.861L269.147 168.169L267.027 168.921L272.451 174.609Z" fill="white"/>
<path d="M255.851 161.217L253.735 161.965L258.375 166.829C258.199 166.893 255.207 167.953 255.207 167.953L247.871 160.261L261.339 155.489L268.675 163.181L265.435 164.321L260.827 159.453L258.707 160.205L263.347 165.069C263.203 165.121 260.487 166.081 260.487 166.081L255.851 161.217Z" fill="white"/>
<path d="M237.115 130.001L233.935 131.141L237.767 135.165L227.507 138.801L230.187 141.609L240.447 137.973L242.119 139.765L245.471 143.241L231.731 148.117L237.907 149.705L251.375 144.929" fill="#BA1623"/>
<path d="M228.987 174.565L231.451 167.201L227.539 163.657L227.487 163.617L220.911 157.549L219.679 161.273L223.811 165.061L223.519 165.945L218.491 164.869L217.259 168.577L222.379 169.381L221.391 172.361L227.795 178.229M224.855 170.705L226.047 167.117L227.707 168.637L226.519 172.221L224.859 170.705H224.855Z" fill="white"/>
<path d="M215.667 198.377L209.299 192.541L213.003 181.385L215.479 183.657L213.011 191.093L214.663 192.609L217.135 185.169L223.543 191.029L219.835 202.193L217.327 199.897L219.803 192.433L218.143 190.913L215.667 198.377Z" fill="white"/>
<path d="M219.703 177.429L218.051 175.913L215.935 182.293C215.799 182.169 213.455 180.025 213.455 180.025L216.803 169.937L227.339 179.589L223.991 189.677L221.463 187.349L223.599 180.997L221.939 179.477L219.823 185.857C219.711 185.753 217.587 183.805 217.587 183.805L219.703 177.429Z" fill="white"/>
<path d="M238.462 146.237L235.962 143.961L234.214 149.233L226.186 141.881L224.962 145.565L232.99 152.917L232.194 155.233L230.698 159.829L219.942 149.985L221.438 156.181L231.978 165.833" fill="#BA1623"/>
<path d="M195.304 159.978L202.964 158.694L204.256 153.574L204.268 153.51L206.54 144.854L202.672 145.514L201.264 150.942L200.348 151.098L198.94 146.154L195.088 146.806L196.784 151.702L193.688 152.226L191.516 160.638M196.78 154.51L200.508 153.878L199.944 156.058L196.224 156.69L196.78 154.51Z" fill="white"/>
<path d="M168.023 159.397L170.187 151.033L181.775 149.065L180.931 152.321L173.207 153.633L172.647 155.805L180.371 154.489L178.211 162.897L166.611 164.869L167.459 161.573L175.211 160.257L175.775 158.081L168.023 159.397Z" fill="white"/>
<path d="M188.411 153.125L188.975 150.953L182.347 152.081C182.395 151.901 183.187 148.829 183.187 148.829L193.663 147.049L190.087 160.885L179.611 162.665L180.479 159.341L187.091 158.245L187.655 156.065L181.027 157.193C181.067 157.045 181.791 154.257 181.791 154.257L188.415 153.133L188.411 153.125Z" fill="white"/>
<path d="M224.767 155.045L225.599 151.769L220.123 152.701L222.847 142.161L219.019 142.809L216.295 153.349L213.879 153.733L209.115 154.569L212.759 140.453L207.991 144.685L204.419 158.517" fill="#BA1623"/>
<path d="M192.367 123.389L197.095 129.549L202.223 128.289L202.287 128.269L210.995 126.209L208.595 123.105L203.143 124.409L202.575 123.673L206.279 120.109L203.895 117.017L200.367 120.813L198.451 118.329L190.007 120.357M197.891 122.129L200.199 125.121L198.011 125.645L195.707 122.657L197.891 122.125V122.129Z" fill="white"/>
<path d="M180.075 99.0287L188.471 97.0127L195.651 106.321L192.383 107.105L187.595 100.901L185.415 101.425L190.203 107.629L181.763 109.669L174.579 100.349L177.887 99.5527L182.687 105.781L184.875 105.257L180.075 99.0287Z" fill="white"/>
<path d="M195.183 114.085L197.363 113.561L193.255 108.237C193.435 108.193 196.523 107.453 196.523 107.453L203.015 115.869L189.119 119.209L182.627 110.793L185.971 109.997L190.043 115.321L192.231 114.797L188.127 109.473C188.275 109.437 191.079 108.769 191.079 108.769L195.183 114.089V114.085Z" fill="white"/>
<path d="M210.556 147.084L213.84 146.284L210.448 141.884L221.032 139.34L218.66 136.268L208.076 138.812L206.604 136.856L203.628 133.044L217.804 129.632L211.828 127.408L197.936 130.748" fill="#BA1623"/>
<path d="M223.295 103.62L220.075 110.688L223.595 114.624L223.643 114.672L229.547 121.392L231.163 117.816L227.451 113.616L227.835 112.768L232.723 114.364L234.335 110.808L229.327 109.476L230.623 106.616L224.867 100.112M227.003 107.904L225.443 111.348L223.951 109.664L225.507 106.224L226.999 107.904H227.003Z" fill="white"/>
<path d="M239.031 81.3287L244.755 87.7967L239.907 98.5047L237.683 95.9887L240.915 88.8487L239.427 87.1687L236.195 94.3087L230.431 87.8127L235.287 77.0967L237.543 79.6407L234.299 86.8047L235.791 88.4887L239.031 81.3287Z" fill="white"/>
<path d="M232.831 101.736L234.319 103.416L237.091 97.2924C237.215 97.4324 239.319 99.8084 239.319 99.8084L234.935 109.488L225.463 98.7884L229.847 89.1084L232.119 91.6844L229.331 97.7804L230.823 99.4644L233.595 93.3404C233.695 93.4564 235.603 95.6164 235.603 95.6164L232.831 101.736Z" fill="white"/>
<path d="M210.911 130.8L213.159 133.324L215.451 128.264L222.667 136.416L224.267 132.88L217.051 124.728L218.087 122.508L220.055 118.092L229.723 129.008L228.883 122.688L219.411 111.988" fill="#BA1623"/>
<path d="M255.272 121.645L247.52 122.121L245.7 127.077L245.68 127.141L242.516 135.509L246.432 135.257L248.4 130.009L249.328 129.949L250.212 135.013L254.108 134.765L252.936 129.717L256.068 129.517L259.108 121.381M253.232 126.925L249.46 127.165L250.248 125.057L254.016 124.817L253.232 126.925Z" fill="white"/>
<path d="M282.339 125.072L279.319 133.164L267.587 133.912L268.763 130.764L276.583 130.264L277.371 128.164L269.547 128.66L272.575 120.524L284.319 119.776L283.131 122.968L275.283 123.464L274.495 125.572L282.339 125.072Z" fill="white"/>
<path d="M261.407 129.18L260.619 131.28L267.327 130.852C267.263 131.028 266.151 134 266.151 134L255.547 134.676L260.547 121.292L271.151 120.616L269.943 123.832L263.251 124.232L262.463 126.34L269.171 125.912C269.119 126.056 268.107 128.752 268.107 128.752L261.403 129.18H261.407Z" fill="white"/>
<path d="M225.455 123.473L224.283 126.641L229.827 126.289L226.019 136.489L229.891 136.241L233.703 126.041L236.147 125.913L240.967 125.581L235.871 139.241L241.055 135.529L246.055 122.145" fill="#BA1623"/>
<path d="M224.472 73.0205C188.176 73.0205 158.752 102.813 158.752 139.561C158.752 176.309 188.176 206.101 224.472 206.101C260.768 206.101 290.192 176.309 290.192 139.561C290.192 102.813 260.768 73.0205 224.472 73.0205ZM224.472 202.197C190.304 202.197 162.608 174.153 162.608 139.561C162.608 104.969 190.304 76.9245 224.472 76.9245C258.64 76.9245 286.336 104.969 286.336 139.561C286.336 174.153 258.64 202.197 224.472 202.197Z" fill="white"/>
</svg>
